<svg width="269" height="61" viewBox="0 0 269 61" fill="none" xmlns="http://www.w3.org/2000/svg">
<path d="M99.7976 21.776C97.0106 18.1111 93.0279 16.3003 88.4692 16.3003C80.9467 16.3003 74.6182 21.864 74.6182 29.9445C74.6182 37.8042 80.6371 43.5438 88.6455 43.5438C93.071 43.5438 96.8322 41.733 99.7976 38.289L102.32 40.1878C99.0451 44.2946 94.2215 46.4576 88.4258 46.4576C77.805 46.4576 71.2998 38.9951 71.2998 29.6786C71.2998 20.3191 78.5575 13.2085 88.4258 13.2085C94.2667 13.2085 99.1781 15.5062 102.32 19.8772L99.7976 21.776Z" fill="#121B25"/>
<path d="M111.123 13.2086H108.114V45.7066H111.123V13.2086Z" fill="#121B25"/>
<path d="M137.584 31.5778C136.345 26.7202 132.849 24.5572 128.778 24.5572C124.574 24.5572 121.432 26.8099 120.06 31.5778H137.584ZM119.75 34.2277C119.884 39.6134 123.557 43.5439 128.602 43.5439C133.513 43.5439 135.857 40.7614 137.584 37.9355L140.107 39.2612C137.717 43.9411 134.044 46.2818 128.911 46.2818C121.122 46.2818 116.652 40.3195 116.652 34.0497C116.652 27.649 121.387 21.6434 128.733 21.6434C135.416 21.6434 140.814 26.456 140.902 34.2277H119.75Z" fill="#121B25"/>
<path d="M148.911 34.0063C148.911 39.0831 152.893 43.5438 158.158 43.5438C162.981 43.5438 167.54 39.9222 167.54 34.0943C167.54 28.6636 163.469 24.5568 158.203 24.5568C152.803 24.5568 148.911 28.9725 148.911 34.0063ZM167.319 22.2611H170.284V45.7068H167.319V41.688C164.751 44.7797 161.521 46.2816 157.848 46.2816C150.99 46.2816 145.812 40.585 145.812 33.9183C145.812 27.25 151.122 21.643 157.936 21.643C161.743 21.643 164.973 23.2762 167.319 26.5439V22.2611Z" fill="#121B25"/>
<path d="M179.441 25.6615C181.211 23.0999 183.114 21.6427 185.504 21.6427C186.875 21.6427 187.583 22.0849 188.202 22.4367L186.611 24.9987C186.256 24.8224 185.68 24.5568 185.017 24.5568C182.804 24.5568 180.813 26.4556 179.928 29.6783C179.529 31.1802 179.441 33.6091 179.441 36.7871V45.7065H176.254V22.2608H179.441V25.6615Z" fill="#121B25"/>
<path d="M212.763 33.9185C212.763 28.84 208.735 24.3811 203.469 24.3811C198.645 24.3811 194.131 27.958 194.131 33.8288C194.131 39.2613 198.159 43.411 203.469 43.411C208.911 43.411 212.763 38.9524 212.763 33.9185ZM194.353 45.707H191.344V13.209H194.353V26.2798C196.92 23.1884 200.105 21.6432 203.778 21.6432C210.638 21.6432 215.859 27.3399 215.859 34.0065C215.859 40.6302 210.55 46.3248 203.69 46.3248C199.884 46.3248 196.742 44.647 194.353 41.3793V45.707Z" fill="#121B25"/>
<path d="M223.644 34.094C223.644 39.2157 227.494 43.4105 232.805 43.4105C238.07 43.4105 241.964 39.2157 241.964 34.094C241.964 28.8842 237.805 24.5565 232.805 24.5565C227.76 24.5565 223.644 28.8842 223.644 34.094ZM245.062 34.049C245.062 40.7176 239.884 46.3243 232.805 46.3243C225.724 46.3243 220.546 40.7176 220.546 34.049C220.546 27.3393 225.769 21.6427 232.805 21.6427C239.841 21.6427 245.062 27.3393 245.062 34.049Z" fill="#121B25"/>
<path d="M248.291 22.2612H251.919L258.16 30.9149L264.398 22.2612H267.983L259.973 33.3885L269 45.7068H265.327L258.16 35.8604L251.078 45.7068H247.45L256.345 33.3885L248.291 22.2612Z" fill="#121B25"/>
<path d="M1.73148 15.0924L26.4752 27.9374C26.7986 28.1053 27.0015 28.439 27.0015 28.8029V59.2977C27.0015 60.0499 26.1848 60.5191 25.5334 60.1411L0.78974 45.7809C0.488829 45.6063 0.30368 45.285 0.30368 44.9375V15.958C0.30368 15.226 1.08104 14.7548 1.73148 15.0924Z" fill="white"/>
<path d="M28.9008 0.188897L54.7172 11.0389C55.4858 11.3619 55.522 12.4358 54.7769 12.8097L28.9742 25.7574C28.6968 25.8966 28.3698 25.8959 28.093 25.7556L1.70885 12.3784C0.958212 11.9979 1.00888 10.9108 1.79168 10.6015L28.1622 0.180947C28.4 0.0869915 28.6651 0.0898458 28.9008 0.188897Z" fill="white"/>
<path d="M55.2589 15.2947L30.2776 28.1413C29.9523 28.3086 29.7479 28.6433 29.7479 29.0086V59.4758C29.7479 60.2295 30.5674 60.6985 31.2187 60.3176L56.2001 45.71C56.4994 45.535 56.6834 45.2146 56.6834 44.8682V16.162C56.6834 15.4317 55.9092 14.9603 55.2589 15.2947Z" fill="white"/>
<path d="M50.9794 26.3013C48.7314 16.0331 39.571 8.34589 28.6124 8.34589C15.9677 8.34589 5.71719 18.5804 5.71719 31.2054C5.71719 43.8304 15.9677 54.0649 28.6124 54.0649C39.0583 54.0649 47.8703 47.0802 50.619 37.5333H41.2989C38.972 42.175 34.1649 45.3618 28.6124 45.3618C20.7818 45.3618 14.4339 39.0238 14.4339 31.2054C14.4339 23.3871 20.7818 17.049 28.6124 17.049C34.7162 17.049 39.9191 20.9 41.9169 26.3013H50.9794Z" fill="#F2CD10"/>
<path fill-rule="evenodd" clip-rule="evenodd" d="M28.1202 0.107613C28.3857 0.00268443 28.6819 0.00587236 28.9451 0.116491L54.7615 10.9665C55.6198 11.3272 55.6602 12.5264 54.8282 12.9439L29.0254 25.8917C28.7157 26.0471 28.3504 26.0464 28.0414 25.8897L1.65719 12.5125C0.818934 12.0875 0.875505 10.8736 1.74969 10.5282L28.1202 0.107613ZM28.8566 0.326378C28.6484 0.238894 28.4142 0.236373 28.2042 0.319356L1.83368 10.7399C1.14227 11.0131 1.0975 11.9733 1.76052 12.3095L28.1447 25.6866C28.3891 25.8106 28.678 25.8112 28.9229 25.6882L54.7257 12.7405C55.3838 12.4102 55.3518 11.4616 54.6729 11.1763L28.8566 0.326378ZM0.189606 15.9905C0.189606 15.1732 1.05769 14.6468 1.78413 15.024L26.5278 27.8689C26.889 28.0564 27.1156 28.4291 27.1156 28.8355V59.3302C27.1156 60.1702 26.2036 60.6943 25.4761 60.2721L0.732403 45.9119C0.396356 45.7169 0.189606 45.3581 0.189606 44.9701V15.9905ZM1.67885 15.226C1.1044 14.9278 0.417765 15.3439 0.417765 15.9905V44.9701C0.417765 45.277 0.581313 45.5608 0.847087 45.715L25.5908 60.0752C26.166 60.4091 26.8874 59.9947 26.8874 59.3302V28.8355C26.8874 28.514 26.7082 28.2192 26.4225 28.071L1.67885 15.226ZM56.5693 16.1945C56.5693 15.5494 55.8855 15.1331 55.3112 15.4285L30.3298 28.2751C30.0425 28.4228 29.862 28.7184 29.862 29.0411V59.5083C29.862 60.1741 30.5858 60.5883 31.1611 60.2519L56.1424 45.6443C56.4068 45.4897 56.5693 45.2067 56.5693 44.9008V16.1945ZM55.2067 15.226C55.9329 14.8525 56.7974 15.379 56.7974 16.1945V44.9008C56.7974 45.2875 56.592 45.6453 56.2577 45.8408L31.2764 60.4484C30.5489 60.8738 29.6338 60.3499 29.6338 59.5083V29.0411C29.6338 28.6332 29.8621 28.2594 30.2253 28.0726L55.2067 15.226Z" fill="#BBBBBC"/>
</svg>
