<svg width="775" height="1000" viewBox="0 0 775 1000" fill="none" xmlns="http://www.w3.org/2000/svg">
<path d="M519.773 410V316.909H575.954V326.909H531.045V358.364H573.045V368.364H531.045V400H576.682V410H519.773Z" fill="white"/>
<path d="M447.773 410V316.909H459.045V400H502.318V410H447.773Z" fill="white"/>
<path d="M425.17 316.909V410H413.898V316.909H425.17Z" fill="white"/>
<path d="M330.648 410V316.909H363.193C369.678 316.909 375.026 318.03 379.239 320.273C383.451 322.485 386.587 325.47 388.648 329.227C390.708 332.955 391.739 337.091 391.739 341.636C391.739 345.636 391.026 348.939 389.602 351.545C388.208 354.151 386.36 356.212 384.057 357.727C381.784 359.242 379.314 360.364 376.648 361.091V362C379.496 362.182 382.36 363.182 385.239 365C388.117 366.818 390.526 369.424 392.466 372.818C394.405 376.212 395.375 380.364 395.375 385.273C395.375 389.939 394.314 394.136 392.193 397.864C390.072 401.591 386.723 404.545 382.148 406.727C377.572 408.909 371.617 410 364.284 410H330.648ZM341.92 400H364.284C371.648 400 376.875 398.576 379.966 395.727C383.087 392.848 384.648 389.364 384.648 385.273C384.648 382.121 383.845 379.212 382.239 376.545C380.633 373.848 378.345 371.697 375.375 370.091C372.405 368.455 368.89 367.636 364.83 367.636H341.92V400ZM341.92 357.818H362.83C366.223 357.818 369.284 357.151 372.011 355.818C374.769 354.485 376.951 352.606 378.557 350.182C380.193 347.758 381.011 344.909 381.011 341.636C381.011 337.545 379.587 334.076 376.739 331.227C373.89 328.348 369.375 326.909 363.193 326.909H341.92V357.818Z" fill="white"/>
<path d="M311.693 363.455C311.693 373.273 309.92 381.758 306.375 388.909C302.829 396.061 297.966 401.576 291.784 405.455C285.602 409.333 278.542 411.273 270.602 411.273C262.663 411.273 255.602 409.333 249.42 405.455C243.239 401.576 238.375 396.061 234.829 388.909C231.284 381.758 229.511 373.273 229.511 363.455C229.511 353.636 231.284 345.152 234.829 338C238.375 330.848 243.239 325.333 249.42 321.455C255.602 317.576 262.663 315.636 270.602 315.636C278.542 315.636 285.602 317.576 291.784 321.455C297.966 325.333 302.829 330.848 306.375 338C309.92 345.152 311.693 353.636 311.693 363.455ZM300.784 363.455C300.784 355.394 299.435 348.591 296.739 343.045C294.072 337.5 290.451 333.303 285.875 330.455C281.329 327.606 276.239 326.182 270.602 326.182C264.966 326.182 259.86 327.606 255.284 330.455C250.738 333.303 247.117 337.5 244.42 343.045C241.754 348.591 240.42 355.394 240.42 363.455C240.42 371.515 241.754 378.318 244.42 383.864C247.117 389.409 250.738 393.606 255.284 396.455C259.86 399.303 264.966 400.727 270.602 400.727C276.239 400.727 281.329 399.303 285.875 396.455C290.451 393.606 294.072 389.409 296.739 383.864C299.435 378.318 300.784 371.515 300.784 363.455Z" fill="white"/>
<path d="M119.273 316.909H132.727L164.364 394.182H165.455L197.091 316.909H210.545V410H200V339.273H199.091L170 410H159.818L130.727 339.273H129.818V410H119.273V316.909Z" fill="white"/>
</svg>
