<svg width="261" height="197" viewBox="0 0 261 197" fill="none" xmlns="http://www.w3.org/2000/svg">
<g id="green-card-1">
<path id="Rectangle 1" d="M13.8601 51.7717C13.4798 48.8994 15.5 46.2625 18.3723 45.8822L225.757 18.422C228.63 18.0416 231.267 20.0618 231.647 22.9342L249.985 161.428C250.365 164.3 248.345 166.937 245.473 167.317L38.0878 194.777C35.2154 195.158 32.5786 193.137 32.1983 190.265L13.8601 51.7717Z" fill="white"/>
<path id="Vector 15" opacity="0.4" d="M150.224 99.6537C174.291 86.8037 212.135 54.7958 211.35 17.3473C211.271 13.5893 208.865 10.3503 205.491 8.69382L203.064 7.50241C201.072 6.52434 198.834 6.15789 196.634 6.44923L17.3916 30.183C14.1134 30.6171 11.1926 32.4725 9.40639 35.2554L4.13704 43.4653C2.70081 45.703 2.10422 48.3774 2.45325 51.0134L15.8674 152.319C16.2587 155.275 17.8083 157.954 20.175 159.768L21.5902 160.852C23.957 162.665 26.9472 163.464 29.9029 163.072L101.94 153.534C105.448 153.069 108.544 150.981 110.222 147.865C121.844 126.277 126.63 112.251 150.224 99.6537Z" fill="#009F10"/>
<path id="Rectangle 5" d="M146.233 129.288C145.962 127.24 147.402 125.361 149.45 125.09L222.038 115.478C224.086 115.207 225.965 116.647 226.237 118.695L228.632 136.783C228.903 138.83 227.463 140.71 225.415 140.981L152.827 150.593C150.779 150.864 148.899 149.424 148.628 147.376L146.233 129.288Z" fill="white"/>
<path id="Rectangle 5 (Stroke)" fill-rule="evenodd" clip-rule="evenodd" d="M152.094 150.618L152.158 149.62C152.333 149.631 152.513 149.626 152.696 149.601L153.452 149.501L153.583 150.493L152.827 150.593C152.579 150.626 152.334 150.633 152.094 150.618ZM224.659 141.081L224.528 140.09L225.284 139.99C225.466 139.966 225.641 139.924 225.808 139.868L226.129 140.815C225.901 140.892 225.663 140.949 225.415 140.981L224.659 141.081ZM227.392 140.084L226.732 139.333C227.002 139.095 227.224 138.806 227.383 138.483L228.28 138.925C228.063 139.366 227.761 139.76 227.392 140.084ZM226.336 119.448L225.345 119.58L225.245 118.826C225.221 118.643 225.18 118.468 225.123 118.302L226.07 117.981C226.147 118.208 226.204 118.447 226.237 118.695L226.336 119.448ZM225.339 116.717L224.589 117.378C224.351 117.108 224.061 116.886 223.738 116.727L224.181 115.83C224.621 116.047 225.015 116.349 225.339 116.717ZM150.206 124.989L149.45 125.09C149.202 125.122 148.964 125.179 148.736 125.256L149.057 126.203C149.223 126.147 149.399 126.105 149.581 126.081L150.337 125.981L150.206 124.989ZM147.473 125.987L148.133 126.738C147.863 126.975 147.641 127.265 147.482 127.588L146.585 127.145C146.802 126.705 147.104 126.311 147.473 125.987ZM148.528 146.622L149.52 146.491L149.62 147.245C149.644 147.428 149.685 147.603 149.742 147.769L148.795 148.09C148.717 147.862 148.661 147.624 148.628 147.376L148.528 146.622ZM150.684 150.241L151.127 149.344C150.804 149.185 150.514 148.963 150.276 148.693L149.526 149.353C149.85 149.722 150.244 150.024 150.684 150.241ZM148.329 145.115L149.32 144.984L149.121 143.477L148.129 143.608L148.329 145.115ZM147.93 142.1L148.921 141.969L148.721 140.462L147.73 140.593L147.93 142.1ZM147.531 139.086L148.522 138.955L148.322 137.447L147.331 137.578L147.531 139.086ZM147.131 136.071L148.123 135.94L147.923 134.433L146.932 134.564L147.131 136.071ZM146.732 133.056L147.724 132.925L147.524 131.418L146.533 131.549L146.732 133.056ZM146.333 130.042L147.324 129.911L147.225 129.157C147.2 128.974 147.195 128.794 147.206 128.619L146.208 128.555C146.193 128.795 146.2 129.041 146.233 129.288L146.333 130.042ZM151.718 124.789L151.85 125.781L153.362 125.58L153.231 124.589L151.718 124.789ZM154.743 124.389L154.874 125.38L156.386 125.18L156.255 124.188L154.743 124.389ZM157.767 123.988L157.899 124.98L159.411 124.779L159.28 123.788L157.767 123.988ZM160.792 123.588L160.923 124.579L162.435 124.379L162.304 123.388L160.792 123.588ZM163.816 123.187L163.948 124.179L165.46 123.978L165.329 122.987L163.816 123.187ZM166.841 122.787L166.972 123.778L168.484 123.578L168.353 122.587L166.841 122.787ZM169.865 122.386L169.997 123.378L171.509 123.177L171.378 122.186L169.865 122.386ZM172.89 121.986L173.021 122.977L174.533 122.777L174.402 121.786L172.89 121.986ZM175.914 121.585L176.046 122.577L177.558 122.376L177.427 121.385L175.914 121.585ZM178.939 121.185L179.07 122.176L180.582 121.976L180.451 120.985L178.939 121.185ZM181.963 120.784L182.095 121.776L183.607 121.576L183.476 120.584L181.963 120.784ZM184.988 120.384L185.119 121.375L186.631 121.175L186.5 120.184L184.988 120.384ZM188.012 119.983L188.144 120.975L189.656 120.775L189.525 119.783L188.012 119.983ZM191.037 119.583L191.168 120.574L192.68 120.374L192.549 119.383L191.037 119.583ZM194.061 119.182L194.193 120.174L195.705 119.974L195.574 118.982L194.061 119.182ZM197.086 118.782L197.217 119.773L198.729 119.573L198.598 118.582L197.086 118.782ZM200.11 118.382L200.242 119.373L201.754 119.173L201.623 118.181L200.11 118.382ZM203.135 117.981L203.266 118.972L204.778 118.772L204.647 117.781L203.135 117.981ZM206.159 117.581L206.291 118.572L207.803 118.372L207.672 117.38L206.159 117.581ZM209.184 117.18L209.315 118.171L210.827 117.971L210.696 116.98L209.184 117.18ZM212.208 116.78L212.34 117.771L213.852 117.571L213.721 116.579L212.208 116.78ZM215.233 116.379L215.364 117.37L216.876 117.17L216.745 116.179L215.233 116.379ZM218.257 115.979L218.389 116.97L219.901 116.77L219.77 115.778L218.257 115.979ZM221.282 115.578L221.413 116.57L222.169 116.469C222.352 116.445 222.532 116.44 222.707 116.451L222.771 115.453C222.531 115.437 222.286 115.445 222.038 115.478L221.282 115.578ZM226.536 120.956L225.545 121.087L225.744 122.594L226.736 122.463L226.536 120.956ZM226.935 123.97L225.944 124.102L226.143 125.609L227.135 125.478L226.935 123.97ZM227.334 126.985L226.343 127.116L226.543 128.624L227.534 128.492L227.334 126.985ZM227.733 130L226.742 130.131L226.942 131.638L227.933 131.507L227.733 130ZM228.133 133.014L227.141 133.146L227.341 134.653L228.332 134.522L228.133 133.014ZM228.532 136.029L227.54 136.16L227.64 136.914C227.664 137.097 227.67 137.277 227.659 137.452L228.657 137.516C228.672 137.276 228.664 137.03 228.632 136.783L228.532 136.029ZM223.147 141.282L223.015 140.29L221.503 140.491L221.634 141.482L223.147 141.282ZM220.122 141.682L219.991 140.691L218.479 140.891L218.61 141.882L220.122 141.682ZM217.098 142.083L216.966 141.091L215.454 141.292L215.585 142.283L217.098 142.083ZM214.073 142.483L213.942 141.492L212.43 141.692L212.561 142.683L214.073 142.483ZM211.049 142.884L210.917 141.892L209.405 142.092L209.536 143.084L211.049 142.884ZM208.024 143.284L207.893 142.293L206.381 142.493L206.512 143.484L208.024 143.284ZM205 143.685L204.868 142.693L203.356 142.893L203.487 143.885L205 143.685ZM201.975 144.085L201.844 143.094L200.332 143.294L200.463 144.285L201.975 144.085ZM198.951 144.486L198.819 143.494L197.307 143.694L197.438 144.686L198.951 144.486ZM195.926 144.886L195.795 143.895L194.282 144.095L194.414 145.086L195.926 144.886ZM192.902 145.286L192.77 144.295L191.258 144.495L191.389 145.487L192.902 145.286ZM189.877 145.687L189.746 144.696L188.233 144.896L188.365 145.887L189.877 145.687ZM186.853 146.087L186.721 145.096L185.209 145.296L185.34 146.288L186.853 146.087ZM183.828 146.488L183.697 145.497L182.184 145.697L182.316 146.688L183.828 146.488ZM180.803 146.888L180.672 145.897L179.16 146.097L179.291 147.089L180.803 146.888ZM177.779 147.289L177.648 146.298L176.135 146.498L176.267 147.489L177.779 147.289ZM174.754 147.689L174.623 146.698L173.111 146.898L173.242 147.89L174.754 147.689ZM171.73 148.09L171.599 147.098L170.086 147.299L170.218 148.29L171.73 148.09ZM168.705 148.49L168.574 147.499L167.062 147.699L167.193 148.691L168.705 148.49ZM165.681 148.891L165.55 147.899L164.037 148.1L164.169 149.091L165.681 148.891ZM162.656 149.291L162.525 148.3L161.013 148.5L161.144 149.492L162.656 149.291ZM159.632 149.692L159.501 148.7L157.988 148.901L158.12 149.892L159.632 149.692ZM156.607 150.092L156.476 149.101L154.964 149.301L155.095 150.292L156.607 150.092Z" fill="#009F10"/>
<path id="Ellipse 11" d="M96.249 76.2734C97.5491 86.0922 90.6434 95.1058 80.8246 96.406C71.0058 97.7061 61.9921 90.8003 60.692 80.9815C59.3919 71.1627 66.2976 62.1491 76.1164 60.8489C85.9352 59.5488 94.9489 66.4546 96.249 76.2734Z" fill="white"/>
<g id="Group">
<path id="Vector" d="M48.3507 181.695L231.765 149.33C235.237 148.717 238.443 146.879 240.675 144.227C242.906 141.575 243.984 138.32 243.667 135.185L233.467 34.6031C233.149 31.4674 231.46 28.7014 228.779 26.9161C226.097 25.1308 222.638 24.4691 219.166 25.0818L35.7515 57.4476C28.5132 58.7249 23.1874 65.0548 23.8504 71.5925L34.0497 172.174C34.3677 175.31 36.0567 178.076 38.7381 179.861C41.4195 181.646 44.8788 182.308 48.3507 181.695ZM39.5503 160.664L85.416 152.57C87.2255 152.251 88.557 150.668 88.3912 149.034C88.2255 147.399 86.6256 146.334 84.816 146.654L38.9503 154.747L30.4009 70.4366C30.0694 67.1677 32.7322 64.0028 36.3515 63.3641L219.766 30.9983C221.502 30.692 223.235 31.0185 224.576 31.9111C225.917 32.8038 226.758 34.1911 226.917 35.7589L237.116 136.34C237.275 137.908 236.74 139.538 235.624 140.864C234.509 142.191 232.901 143.107 231.165 143.413L47.7507 175.779C44.1315 176.417 40.9317 174.287 40.6002 171.018L39.5503 160.664Z" fill="#27516D"/>
<path id="Vector_2" d="M129.712 74.582L209.807 62.5782C211.578 62.3129 212.878 61.0144 212.714 59.6766C212.549 58.3388 210.982 57.4701 209.212 57.7354L129.116 69.7392C127.346 70.0045 126.046 71.3029 126.21 72.6407C126.375 73.9786 127.942 74.8473 129.712 74.582Z" fill="#27516D"/>
<path id="Vector_3" d="M131.403 87.3604L211.499 75.3566C213.269 75.0913 214.57 73.7929 214.405 72.455C214.241 71.1172 212.674 70.2485 210.903 70.5138L130.808 82.5176C129.038 82.7829 127.737 84.0813 127.902 85.4191C128.066 86.757 129.633 87.6257 131.403 87.3604Z" fill="#27516D"/>
<path id="Vector_4" d="M216.098 85.2321C216.019 84.5904 215.606 84.0234 214.95 83.6594C214.293 83.2953 213.445 83.1636 212.596 83.2908L132.5 95.2946C130.73 95.5599 129.43 96.8584 129.594 98.1962C129.759 99.534 131.326 100.403 133.096 100.137L213.192 88.1336C214.041 88.0064 214.826 87.6297 215.371 87.0857C215.916 86.5416 216.177 85.8738 216.098 85.2321Z" fill="#27516D"/>
<path id="Vector_5" d="M159.965 103.304L134.207 107.515C132.428 107.806 131.12 109.24 131.284 110.718C131.448 112.197 133.022 113.16 134.801 112.869L160.559 108.657C162.338 108.366 163.646 106.933 163.482 105.454C163.318 103.975 161.744 103.013 159.965 103.304Z" fill="#27516D"/>
<path id="Vector_6" d="M140.721 138.357L114.962 142.568C113.183 142.859 111.875 144.293 112.039 145.772C112.203 147.251 113.777 148.213 115.556 147.922L141.314 143.71C143.093 143.419 144.401 141.986 144.237 140.507C144.073 139.028 142.499 138.066 140.721 138.357Z" fill="#27516D"/>
<path id="Vector_7" d="M210.427 129.168L162.215 136.65C158.886 137.166 156.328 138.761 156.499 140.214C156.67 141.666 159.506 142.424 162.836 141.907L211.048 134.426C214.377 133.909 216.935 132.314 216.764 130.862C216.593 129.409 213.757 128.651 210.427 129.168Z" fill="#27516D"/>
<path id="Vector_8" d="M217.79 98.2659C217.711 97.5566 217.297 96.9293 216.638 96.526C215.979 96.1228 215.126 95.976 214.273 96.1156L188.515 100.327C186.736 100.618 185.428 102.051 185.592 103.53C185.756 105.009 187.33 105.972 189.109 105.681L214.867 101.469C215.72 101.33 216.51 100.914 217.058 100.314C217.606 99.713 217.869 98.9753 217.79 98.2659Z" fill="#27516D"/>
<path id="Vector_9" d="M89.3916 102.053C87.2531 102.998 85.0301 103.699 82.7559 104.144L86.9501 119.708L84.1473 122.993L80.659 120.628L81.851 104.337C79.5782 104.711 77.2877 104.823 75.0383 104.661L73.8244 122.442C73.7532 123.44 74.2048 124.36 75.0306 124.917L82.3712 129.863C83.8011 130.812 85.9025 130.437 87.0955 129.02L93.2249 121.873C93.9329 121.082 94.2325 120.059 94.0271 119.118L89.3916 102.053Z" fill="#27516D"/>
<path id="Vector_10" d="M101.132 91.7315C99.6439 94.0205 97.8146 96.1247 95.707 97.9778C103.403 97.2785 107.864 101.013 108.659 108.879L110.167 123.802C110.341 125.519 112.016 126.639 113.911 126.303C115.805 125.967 117.199 124.304 117.025 122.586L115.517 107.663C114.578 98.3677 109.353 92.7747 101.132 91.7315Z" fill="#27516D"/>
<path id="Vector_11" d="M61.0765 96.7377C53.3522 100.607 49.4216 107.822 50.3611 117.118L51.8694 132.041C52.043 133.759 53.7182 134.878 55.6127 134.542C57.5072 134.206 58.9011 132.543 58.7275 130.826L57.2192 115.903C56.4242 108.037 59.9868 102.88 67.5505 100.875C65.1491 99.8215 62.9663 98.4281 61.0765 96.7377Z" fill="#27516D"/>
<path id="Vector_12" d="M76.5965 60.0503C68.5512 61.4847 61.7452 67.2037 59.3513 74.5388C56.9486 81.8679 59.4387 89.3798 65.6426 93.5573C71.8466 97.7345 80.5616 97.7673 87.7037 93.6287C94.8544 89.4966 99.0379 82.0117 98.3016 74.6646C97.2969 64.639 87.5747 58.0929 76.5965 60.0503ZM79.6296 90.3161C74.269 91.2718 69.1345 89.1837 66.6346 85.0237C64.1264 80.8654 64.7398 75.4573 68.188 71.3228C71.6273 67.1821 77.2238 65.1293 82.3664 66.1223C87.5083 67.1079 91.1826 70.9506 91.6732 75.846C91.9947 79.0541 90.9031 82.3834 88.6451 85.0965C86.387 87.8096 83.1427 89.6897 79.6296 90.3161Z" fill="#27516D"/>
</g>
<path id="Vector 3 (Stroke)" fill-rule="evenodd" clip-rule="evenodd" d="M78.0679 30.0632C78.0135 29.6529 78.3021 29.2762 78.7125 29.2219L83.1571 28.6333C83.5674 28.579 83.9441 28.8676 83.9985 29.2779C84.0528 29.6883 83.7642 30.065 83.3539 30.1193L78.9092 30.7078C78.4989 30.7622 78.1222 30.4736 78.0679 30.0632Z" fill="white"/>
<path id="Vector 4 (Stroke)" fill-rule="evenodd" clip-rule="evenodd" d="M92.513 28.1506C92.4586 27.7403 92.7472 27.3636 93.1576 27.3092L232.032 8.92056C236.136 8.37722 239.903 11.2632 240.446 15.3666L248.094 73.1269C248.148 73.5372 247.86 73.9139 247.45 73.9682C247.039 74.0226 246.663 73.734 246.608 73.3236L238.96 15.5634C238.525 12.2806 235.512 9.97186 232.229 10.4065L93.3543 28.7952C92.944 28.8495 92.5673 28.5609 92.513 28.1506Z" fill="white"/>
</g>
</svg>
