<svg width="252" height="182" viewBox="0 0 252 182" fill="none" xmlns="http://www.w3.org/2000/svg">
<g id="green-card-2">
<path id="Rectangle 1" d="M20.9161 21.6437C21.1107 18.7528 23.6119 16.567 26.5028 16.7615L235.226 30.8083C238.117 31.0029 240.303 33.5041 240.108 36.395L230.728 175.782C230.533 178.673 228.032 180.859 225.141 180.664L16.4177 166.617C13.5268 166.423 11.341 163.921 11.5355 161.031L20.9161 21.6437Z" fill="white"/>
<path id="Vector 15" opacity="0.4" d="M145.134 95.5189C171.266 87.6762 214.687 63.7746 221.315 26.9089C221.98 23.2094 220.261 19.5588 217.28 17.2685L215.137 15.6211C213.377 14.2688 211.256 13.4676 209.041 13.3186L28.6426 1.17799C25.3433 0.955943 22.1135 2.1978 19.8128 4.57307L13.0255 11.5803C11.1755 13.4902 10.0624 15.994 9.88388 18.647L3.02213 120.606C2.82193 123.581 3.81168 126.514 5.77364 128.759L6.94672 130.101C8.90869 132.346 11.6822 133.72 14.657 133.92L87.1587 138.8C90.6893 139.037 94.1374 137.601 96.3972 134.878C112.054 116.012 119.517 103.207 145.134 95.5189Z" fill="#009F10"/>
<path id="Rectangle 5" d="M135.369 123.781C135.507 121.72 137.29 120.162 139.351 120.301L212.408 125.217C214.469 125.356 216.027 127.139 215.888 129.2L214.663 147.405C214.524 149.466 212.741 151.024 210.68 150.885L137.624 145.968C135.563 145.83 134.005 144.047 134.144 141.986L135.369 123.781Z" fill="white"/>
<path id="Rectangle 5 (Stroke)" fill-rule="evenodd" clip-rule="evenodd" d="M136.9 145.848L137.16 144.883C137.33 144.928 137.507 144.958 137.691 144.971L138.452 145.022L138.385 146.02L137.624 145.968C137.375 145.952 137.133 145.911 136.9 145.848ZM209.919 150.834L209.986 149.836L210.748 149.887C210.931 149.9 211.111 149.894 211.286 149.871L211.413 150.863C211.175 150.894 210.93 150.902 210.68 150.885L209.919 150.834ZM212.796 150.396L212.297 149.53C212.609 149.35 212.883 149.11 213.103 148.825L213.895 149.436C213.595 149.824 213.221 150.151 212.796 150.396ZM215.837 129.958L214.839 129.891L214.89 129.133C214.903 128.949 214.897 128.769 214.874 128.595L215.866 128.467C215.897 128.706 215.905 128.951 215.888 129.2L215.837 129.958ZM215.399 127.084L214.533 127.584C214.353 127.272 214.113 126.997 213.828 126.777L214.439 125.985C214.827 126.285 215.154 126.659 215.399 127.084ZM140.112 120.352L139.351 120.301C139.102 120.284 138.857 120.292 138.618 120.323L138.746 121.314C138.92 121.292 139.1 121.286 139.284 121.298L140.045 121.35L140.112 120.352ZM137.236 120.79L137.735 121.656C137.423 121.836 137.148 122.076 136.928 122.361L136.137 121.75C136.437 121.361 136.81 121.035 137.236 120.79ZM134.195 141.227L135.192 141.294L135.141 142.053C135.129 142.237 135.135 142.417 135.157 142.591L134.166 142.719C134.135 142.48 134.127 142.235 134.144 141.986L134.195 141.227ZM135.593 145.2L136.204 144.409C135.919 144.189 135.679 143.914 135.499 143.602L134.633 144.101C134.878 144.527 135.204 144.901 135.593 145.2ZM134.297 139.71L135.294 139.777L135.397 138.26L134.399 138.193L134.297 139.71ZM134.501 136.676L135.499 136.743L135.601 135.226L134.603 135.159L134.501 136.676ZM134.705 133.642L135.703 133.709L135.805 132.192L134.807 132.125L134.705 133.642ZM134.909 130.608L135.907 130.675L136.009 129.158L135.011 129.091L134.909 130.608ZM135.113 127.574L136.111 127.641L136.213 126.124L135.216 126.057L135.113 127.574ZM135.318 124.54L136.315 124.607L136.366 123.848C136.379 123.664 136.409 123.487 136.454 123.317L135.489 123.058C135.426 123.29 135.385 123.532 135.369 123.781L135.318 124.54ZM141.634 120.454L141.567 121.452L143.089 121.554L143.156 120.557L141.634 120.454ZM144.678 120.659L144.611 121.657L146.133 121.759L146.2 120.762L144.678 120.659ZM147.722 120.864L147.655 121.862L149.177 121.964L149.244 120.966L147.722 120.864ZM150.766 121.069L150.699 122.067L152.221 122.169L152.288 121.171L150.766 121.069ZM153.81 121.274L153.743 122.271L155.265 122.374L155.332 121.376L153.81 121.274ZM156.854 121.479L156.787 122.476L158.309 122.579L158.376 121.581L156.854 121.479ZM159.898 121.683L159.831 122.681L161.353 122.784L161.42 121.786L159.898 121.683ZM162.943 121.888L162.875 122.886L164.397 122.988L164.465 121.991L162.943 121.888ZM165.987 122.093L165.919 123.091L167.441 123.193L167.509 122.196L165.987 122.093ZM169.031 122.298L168.963 123.296L170.485 123.398L170.553 122.4L169.031 122.298ZM172.075 122.503L172.007 123.501L173.529 123.603L173.597 122.605L172.075 122.503ZM175.119 122.708L175.051 123.705L176.573 123.808L176.641 122.81L175.119 122.708ZM178.163 122.913L178.095 123.91L179.617 124.013L179.685 123.015L178.163 122.913ZM181.207 123.117L181.139 124.115L182.661 124.218L182.729 123.22L181.207 123.117ZM184.251 123.322L184.183 124.32L185.705 124.422L185.773 123.425L184.251 123.322ZM187.295 123.527L187.227 124.525L188.75 124.627L188.817 123.63L187.295 123.527ZM190.339 123.732L190.272 124.73L191.794 124.832L191.861 123.834L190.339 123.732ZM193.383 123.937L193.316 124.935L194.838 125.037L194.905 124.039L193.383 123.937ZM196.427 124.142L196.36 125.139L197.882 125.242L197.949 124.244L196.427 124.142ZM199.471 124.347L199.404 125.344L200.926 125.447L200.993 124.449L199.471 124.347ZM202.515 124.551L202.448 125.549L203.97 125.652L204.037 124.654L202.515 124.551ZM205.559 124.756L205.492 125.754L207.014 125.857L207.081 124.859L205.559 124.756ZM208.603 124.961L208.536 125.959L210.058 126.061L210.125 125.064L208.603 124.961ZM211.647 125.166L211.58 126.164L212.341 126.215C212.524 126.227 212.702 126.257 212.872 126.303L213.131 125.337C212.899 125.275 212.657 125.234 212.408 125.217L211.647 125.166ZM215.735 131.476L214.737 131.408L214.635 132.925L215.633 132.993L215.735 131.476ZM215.531 134.51L214.533 134.443L214.431 135.96L215.429 136.027L215.531 134.51ZM215.327 137.544L214.329 137.477L214.227 138.994L215.225 139.061L215.327 137.544ZM215.122 140.578L214.125 140.511L214.023 142.028L215.02 142.095L215.122 140.578ZM214.918 143.612L213.921 143.545L213.818 145.062L214.816 145.129L214.918 143.612ZM214.714 146.646L213.716 146.579L213.665 147.337C213.653 147.521 213.623 147.699 213.577 147.869L214.543 148.128C214.605 147.896 214.646 147.654 214.663 147.405L214.714 146.646ZM208.397 150.731L208.464 149.734L206.942 149.631L206.875 150.629L208.397 150.731ZM205.353 150.527L205.42 149.529L203.898 149.426L203.831 150.424L205.353 150.527ZM202.309 150.322L202.376 149.324L200.854 149.222L200.787 150.219L202.309 150.322ZM199.265 150.117L199.332 149.119L197.81 149.017L197.743 150.014L199.265 150.117ZM196.221 149.912L196.288 148.914L194.766 148.812L194.699 149.81L196.221 149.912ZM193.177 149.707L193.244 148.709L191.722 148.607L191.655 149.605L193.177 149.707ZM190.133 149.502L190.2 148.505L188.678 148.402L188.611 149.4L190.133 149.502ZM187.089 149.297L187.156 148.3L185.634 148.197L185.567 149.195L187.089 149.297ZM184.045 149.093L184.112 148.095L182.59 147.992L182.523 148.99L184.045 149.093ZM181.001 148.888L181.068 147.89L179.546 147.788L179.479 148.785L181.001 148.888ZM177.957 148.683L178.024 147.685L176.502 147.583L176.435 148.58L177.957 148.683ZM174.913 148.478L174.98 147.48L173.458 147.378L173.391 148.376L174.913 148.478ZM171.869 148.273L171.936 147.275L170.414 147.173L170.347 148.171L171.869 148.273ZM168.825 148.068L168.892 147.071L167.37 146.968L167.303 147.966L168.825 148.068ZM165.781 147.863L165.848 146.866L164.326 146.763L164.259 147.761L165.781 147.863ZM162.737 147.659L162.804 146.661L161.282 146.558L161.215 147.556L162.737 147.659ZM159.693 147.454L159.76 146.456L158.238 146.354L158.171 147.351L159.693 147.454ZM156.649 147.249L156.716 146.251L155.194 146.149L155.127 147.146L156.649 147.249ZM153.605 147.044L153.672 146.046L152.15 145.944L152.083 146.942L153.605 147.044ZM150.561 146.839L150.628 145.841L149.106 145.739L149.039 146.737L150.561 146.839ZM147.517 146.634L147.584 145.637L146.062 145.534L145.995 146.532L147.517 146.634ZM144.473 146.429L144.54 145.432L143.018 145.329L142.951 146.327L144.473 146.429ZM141.429 146.225L141.496 145.227L139.974 145.124L139.907 146.122L141.429 146.225Z" fill="#009F10"/>
<path id="Ellipse 11" d="M96.8417 61.9373C96.1767 71.8194 87.6265 79.2914 77.7443 78.6263C67.8621 77.9613 60.3902 69.4111 61.0553 59.5289C61.7203 49.6468 70.2705 42.1748 80.1527 42.8399C90.0348 43.5049 97.5068 52.0551 96.8417 61.9373Z" fill="white"/>
<g id="Group">
<path id="Vector" d="M29.5887 154.147L223.149 160.212C226.812 160.326 230.367 159.204 233.027 157.098C235.687 154.992 237.239 152.07 237.334 148.978L240.389 49.8085C240.484 46.7168 239.116 43.7031 236.591 41.4343C234.066 39.1655 230.587 37.8231 226.923 37.7083L33.3629 31.6436C25.7242 31.4043 19.3763 36.4315 19.1777 42.8774L16.1224 142.047C16.0272 145.139 17.3961 148.152 19.9209 150.421C22.4458 152.69 25.9248 154.032 29.5887 154.147ZM23.3498 132.054L71.7525 133.571C73.6622 133.631 75.2492 132.374 75.2988 130.762C75.3485 129.151 73.8419 127.797 71.9323 127.737L23.5295 126.221L26.0906 43.094C26.1899 39.8709 29.3637 37.3574 33.1832 37.4771L226.743 43.5418C228.575 43.5992 230.319 44.2669 231.581 45.4013C232.844 46.5357 233.524 48.046 233.476 49.5918L230.421 148.761C230.373 150.307 229.602 151.772 228.272 152.825C226.942 153.878 225.16 154.435 223.328 154.378L29.7684 148.313C25.949 148.194 22.936 145.486 23.0353 142.263L23.3498 132.054Z" fill="#27516D"/>
<path id="Vector_2" d="M129.992 66.5258L211.19 70.9304C212.984 71.0278 214.446 70.1026 214.457 68.8629C214.467 67.6232 213.023 66.5403 211.228 66.443L130.03 62.0383C128.236 61.941 126.774 62.8662 126.763 64.1059C126.752 65.3455 128.197 66.4284 129.992 66.5258Z" fill="#27516D"/>
<path id="Vector_3" d="M129.126 79.3866L210.324 83.7912C212.118 83.8886 213.58 82.9633 213.591 81.7237C213.602 80.484 212.157 79.4011 210.362 79.3038L129.164 74.8991C127.37 74.8018 125.908 75.727 125.897 76.9667C125.886 78.2063 127.331 79.2892 129.126 79.3866Z" fill="#27516D"/>
<path id="Vector_4" d="M212.726 94.5833C212.731 93.9887 212.395 93.3981 211.79 92.9443C211.184 92.4905 210.358 92.21 209.497 92.1634L128.299 87.7587C126.505 87.6614 125.043 88.5866 125.032 89.8262C125.022 91.0659 126.466 92.1488 128.261 92.2462L209.459 96.6508C210.32 96.6975 211.15 96.5068 211.763 96.1192C212.375 95.7315 212.721 95.1779 212.726 94.5833Z" fill="#27516D"/>
<path id="Vector_5" d="M153.925 101.224L127.547 100.084C125.725 100.005 124.226 101.092 124.197 102.512C124.168 103.932 125.62 105.146 127.442 105.225L153.819 106.365C155.641 106.443 157.14 105.357 157.169 103.937C157.198 102.517 155.747 101.303 153.925 101.224Z" fill="#27516D"/>
<path id="Vector_6" d="M128.135 131.785L101.758 130.645C99.9359 130.566 98.4367 131.653 98.4076 133.073C98.3784 134.493 99.8302 135.707 101.652 135.786L128.03 136.926C129.851 137.004 131.35 135.918 131.38 134.498C131.409 133.078 129.957 131.864 128.135 131.785Z" fill="#27516D"/>
<path id="Vector_7" d="M198.285 136.644L149.255 134.188C145.869 134.018 143.111 134.987 143.092 136.353C143.074 137.719 145.801 138.962 149.188 139.132L198.218 141.588C201.604 141.758 204.362 140.789 204.38 139.423C204.399 138.057 201.671 136.814 198.285 136.644Z" fill="#27516D"/>
<path id="Vector_8" d="M211.827 107.618C211.841 106.937 211.508 106.267 210.9 105.758C210.292 105.249 209.457 104.943 208.583 104.905L182.205 103.765C180.383 103.687 178.884 104.773 178.855 106.193C178.826 107.613 180.278 108.827 182.099 108.906L208.477 110.046C209.351 110.084 210.197 109.85 210.825 109.395C211.454 108.94 211.813 108.299 211.827 107.618Z" fill="#27516D"/>
<path id="Vector_9" d="M84.7753 86.0098C82.3373 86.49 79.8429 86.7166 77.3296 86.6828L79.6391 102.684L76.1535 105.304L72.731 102.288L76.3274 86.6847C73.8257 86.5825 71.3422 86.2212 68.9418 85.6025L65.1104 102.65C64.8921 103.607 65.248 104.595 66.0587 105.306L73.2649 111.623C74.6706 112.84 76.9878 112.906 78.4741 111.772L86.0918 106.077C86.9668 105.453 87.4349 104.519 87.3471 103.562L84.7753 86.0098Z" fill="#27516D"/>
<path id="Vector_10" d="M97.0155 78.1099C95.0215 80.0351 92.6744 81.7099 90.0545 83.0826C98.7261 83.9843 103.143 88.5427 102.868 96.3734L102.346 111.23C102.286 112.94 103.986 114.376 106.145 114.438C108.304 114.501 110.101 113.166 110.161 111.456L110.683 96.5996C111.008 87.345 106.015 80.8181 97.0155 78.1099Z" fill="#27516D"/>
<path id="Vector_11" d="M57.5809 75.1657C48.41 77.348 42.9694 83.5729 42.6445 92.8274L42.123 107.684C42.063 109.394 43.763 110.83 45.9219 110.892C48.0809 110.955 49.8781 109.62 49.9382 107.91L50.4597 93.0537C50.7345 85.223 55.4617 80.9292 64.1789 80.5309C61.6606 79.0095 59.4357 77.2023 57.5809 75.1657Z" fill="#27516D"/>
<path id="Vector_12" d="M79.5705 42.3261C70.9106 42.0725 62.9626 46.2283 59.4322 52.8539C55.8934 59.4718 57.4756 67.2675 63.4242 72.5881C69.373 77.9085 78.5349 79.7222 86.6181 77.1682C94.7096 74.6221 100.143 68.2172 100.383 60.94C100.71 51.0098 91.3876 42.6722 79.5705 42.3261ZM78.5831 72.304C72.8129 72.135 67.7007 69.0597 65.6455 64.5134C63.5814 59.967 64.973 54.8466 69.1706 51.5411C73.3595 48.228 79.5292 47.3811 84.8012 49.3958C90.0734 51.4031 93.4076 55.8818 93.2479 60.7306C93.1433 63.9082 91.5356 66.9144 88.786 69.0844C86.0365 71.2544 82.3647 72.4148 78.5831 72.304Z" fill="#27516D"/>
</g>
<path id="Vector 3 (Stroke)" fill-rule="evenodd" clip-rule="evenodd" d="M88.1469 13.0463C88.1747 12.6333 88.5321 12.321 88.945 12.3488L93.4183 12.6498C93.8313 12.6776 94.1436 13.035 94.1158 13.448C94.088 13.8609 93.7307 14.1732 93.3177 14.1454L88.8444 13.8444C88.4314 13.8166 88.1191 13.4592 88.1469 13.0463Z" fill="white"/>
<path id="Vector 4 (Stroke)" fill-rule="evenodd" clip-rule="evenodd" d="M102.685 14.0247C102.713 13.6118 103.07 13.2995 103.483 13.3273L243.254 22.7337C247.384 23.0116 250.507 26.5848 250.229 30.7147L246.316 88.8476C246.289 89.2606 245.931 89.5729 245.518 89.5451C245.105 89.5173 244.793 89.16 244.821 88.747L248.733 30.614C248.955 27.3102 246.457 24.4516 243.153 24.2292L103.383 14.8228C102.97 14.795 102.657 14.4377 102.685 14.0247Z" fill="white"/>
</g>
</svg>
