<svg width="214" height="225" viewBox="0 0 214 225" fill="none" xmlns="http://www.w3.org/2000/svg">
<circle cx="100.5" cy="128.5" r="96.5" fill="white"/>
<path fill-rule="evenodd" clip-rule="evenodd" d="M157.5 166C181.524 166 201 146.524 201 122.5C201 98.4756 181.524 78.9999 157.5 78.9999C133.476 78.9999 114 98.4756 114 122.5C114 124.218 114.1 125.914 114.294 127.58C129.507 133.081 140.776 146.826 142.707 163.42C147.325 165.09 152.306 166 157.5 166Z" fill="#FF1A1A" fill-opacity="0.5"/>
<path d="M182.857 137.049L182.848 136.995L182.81 136.771L182.8 136.722L182.747 136.497L182.734 136.481C182.608 136.048 182.412 135.653 182.151 135.305L182.153 135.291L182.146 135.29L182.123 135.255L181.99 135.094L181.959 135.065L181.814 134.91L181.801 134.894C181.489 134.589 181.126 134.342 180.721 134.17L180.713 134.169L180.689 134.152C180.482 134.066 180.27 133.998 180.048 133.951C179.832 133.911 179.594 133.882 179.354 133.871C178.189 133.843 176.809 134.317 175.397 135.497L175.376 135.514C174.927 135.881 173.808 136.809 172.827 137.581C172.33 137.97 171.821 138.344 171.38 138.652C170.944 138.947 170.554 139.193 170.263 139.326L170.243 139.331L170.223 139.344L170.161 139.371L170.091 139.398C170.015 139.425 169.929 139.431 169.836 139.422L169.822 139.421C169.723 139.412 169.633 139.384 169.549 139.335L169.55 139.328L169.474 139.273C169.412 139.22 169.358 139.162 169.316 139.098L169.186 138.983L171.819 111.008C171.928 109.873 171.481 108.741 170.68 107.962L170.673 107.961C170.582 107.864 170.483 107.776 170.375 107.698L170.369 107.691C169.827 107.271 169.158 106.985 168.428 106.917L168.409 106.915C167.898 106.867 167.397 106.927 166.942 107.079L166.927 107.084L166.739 107.155L166.712 107.16C166.335 107.314 165.982 107.523 165.678 107.769C164.937 108.392 164.431 109.293 164.333 110.328L162.835 126.272C162.792 126.268 162.75 126.257 162.708 126.253L161.375 126.128L163.441 104.126C163.489 103.614 163.422 103.109 163.279 102.653L163.267 102.632L163.203 102.444L163.191 102.429C163.038 102.045 162.838 101.696 162.585 101.39C161.973 100.647 161.075 100.138 160.04 100.041L160.043 100.032L160.024 100.03L160.024 100.037C159.513 99.9893 159.012 100.05 158.556 100.201L158.537 100.207L158.349 100.277L158.329 100.283C157.953 100.43 157.607 100.639 157.302 100.893C156.555 101.508 156.048 102.416 155.951 103.449L153.886 125.419L152.359 125.276L153.865 109.26C153.913 108.747 153.853 108.244 153.703 107.784L153.698 107.764L153.628 107.576L153.622 107.556C153.469 107.177 153.261 106.83 153.016 106.524C152.404 105.781 151.501 105.273 150.471 105.176L150.452 105.174C149.934 105.125 149.44 105.187 148.978 105.332L148.958 105.345L148.771 105.409L148.756 105.415C148.374 105.568 148.026 105.77 147.721 106.024L147.706 106.037C147.61 106.116 147.509 106.207 147.413 106.311C147.323 106.41 147.227 106.516 147.15 106.629C146.724 107.173 146.439 107.846 146.37 108.58L144.867 124.576L144.151 124.509L144.046 124.484L143.909 124.438L143.76 124.405L143.5 124.38L144.4 114.809C144.447 114.303 144.388 113.792 144.238 113.333L144.24 113.319L144.17 113.123L144.164 113.103C144.019 112.725 143.804 112.377 143.558 112.071C142.939 111.328 142.043 110.82 141.013 110.723L140.994 110.721C140.484 110.673 139.982 110.734 139.52 110.88L139.5 110.892L139.312 110.963L139.297 110.969C138.917 111.115 138.561 111.324 138.263 111.578L138.247 111.591C138.147 111.67 138.043 111.766 137.947 111.872C137.85 111.963 137.761 112.07 137.684 112.178C137.258 112.729 136.981 113.396 136.912 114.129L135.425 129.955L135.506 129.996C135.422 130.357 135.352 130.724 135.317 131.101L134.302 141.896C134.123 143.802 134.334 145.666 134.872 147.394C134.96 147.678 135.06 147.955 135.16 148.233C135.696 149.639 136.448 150.943 137.38 152.083L137.386 152.097C137.692 152.469 138.025 152.828 138.378 153.182C138.731 153.537 139.107 153.869 139.487 154.166C141.468 155.729 143.914 156.771 146.626 157.026L154.757 157.791C155.829 157.891 156.848 157.906 157.815 157.843C158.789 157.774 159.717 157.613 160.609 157.349C161.501 157.09 162.37 156.724 163.242 156.248C163.974 155.84 164.701 155.36 165.448 154.793L165.478 154.829L165.953 154.39L179.692 142.826L179.713 142.808L179.75 142.771L179.806 142.729L179.849 142.699C180.187 142.455 180.483 142.196 180.762 141.946C181.034 141.689 181.285 141.426 181.496 141.158C182.354 140.125 182.781 139.046 182.875 138.049C182.908 137.705 182.899 137.369 182.857 137.049Z" fill="white"/>
<path d="M35.2729 81.0792C62.0113 98.4448 78.5359 64.1693 122.09 72.6635C121.067 74.8973 118.618 80.3004 117.001 84.042C114.979 88.719 104.164 94.3772 100.605 96.682C97.0471 98.9868 93.3122 107.197 93.0736 108.969C91.6826 119.299 81.7059 126.771 70.3221 110.236C68.2324 107.2 62.3644 107.308 35.2729 81.0792Z" fill="#F2CD10" fill-opacity="0.5"/>
<rect x="4.04895" y="23.5156" width="132.718" height="24.0157" rx="12.0079" transform="rotate(-6.36703 4.04895 23.5156)" fill="white"/>
<rect x="22.4115" y="188.076" width="132.718" height="24.0157" rx="12.0079" transform="rotate(-6.36703 22.4115 188.076)" fill="white"/>
<path d="M135.331 179.928L47.3978 189.74C45.58 182.947 47.6814 169.486 70.6292 169.978C74.7905 163.578 88.1534 153.778 108.315 165.773C115.734 161.977 131.525 159.494 135.331 179.928Z" fill="#F2CD10" fill-opacity="0.5"/>
<path d="M149.28 84.6306C130.352 86.7427 114.685 100.036 109.252 117.867C108.08 117.443 106.895 117.046 105.69 116.692C102.463 115.732 100.122 112.864 99.7325 109.372C99.3428 105.879 100.994 102.566 103.922 100.92C126.337 88.3642 138.937 62.7678 136.139 35.5808C138.165 34.6132 139.963 33.1986 141.407 31.3916C143.894 28.2705 145.022 24.356 144.577 20.3725C143.669 12.1551 136.244 6.22101 128.035 7.13696L14.8879 19.7626C10.8963 20.208 7.32669 22.1706 4.83149 25.2926C2.34432 28.4137 1.21587 32.3202 1.66127 36.3117C2.38774 42.8222 7.20016 47.907 13.2527 49.2847C16.5098 76.4288 34.4417 98.6169 59.0797 105.921C62.2993 106.882 64.6398 109.749 65.0295 113.242C65.4192 116.735 63.7683 120.047 60.8397 121.694C38.4168 134.25 25.8172 159.847 28.6241 187.039C23.0241 189.717 19.4509 195.738 20.1773 202.248C20.6227 206.24 22.5854 209.809 25.7074 212.304C28.8285 214.792 32.743 215.919 36.7265 215.475L149.866 202.85C158.074 201.934 164.008 194.509 163.092 186.301C162.777 183.476 161.704 180.866 159.995 178.694C185.814 175.691 204.444 152.29 201.557 126.417C198.663 100.48 175.217 81.7331 149.279 84.6274L149.28 84.6306ZM39.4183 75.3725C37.3202 74.6778 35.164 73.9732 32.6804 73.403C28.0316 66.2059 24.8684 57.8653 23.6626 48.9562L125.914 37.5465C126.782 47.512 125.14 57.3339 121.438 66.0749C115.949 64.2675 109.659 62.297 98.4649 63.5461C87.0374 64.8212 81.3332 68.2442 76.2929 71.2672C71.5737 74.0997 67.4955 76.5427 58.3295 77.5655C49.1635 78.5883 44.6457 77.095 39.4183 75.3725ZM12.9371 31.764C13.7021 30.8068 14.808 30.2027 16.0392 30.0653L129.178 17.4406C131.705 17.1587 133.995 18.9889 134.277 21.5159C134.416 22.7552 134.07 23.9671 133.304 24.9161C132.525 25.8911 131.427 26.4944 130.204 26.6308L17.0657 39.2636C14.5387 39.5456 12.2478 37.7073 11.964 35.1642C11.8257 33.9249 12.1721 32.721 12.9371 31.764ZM65.9016 130.738C72.4813 127.055 76.187 119.74 75.3339 112.095C74.4808 104.45 69.2619 98.1314 62.0242 95.9895C56.1762 94.2548 50.7361 91.4315 45.8932 87.7515C49.5491 88.3131 53.903 88.4873 59.4878 87.8641C70.8992 86.5907 76.6034 83.1678 81.636 80.1538C86.3633 77.3204 90.4405 74.8693 99.6226 73.8448C107.566 72.9585 112.019 73.9525 116.461 75.3552C111.934 82.1747 105.965 87.8925 98.8639 91.8707C92.2851 95.5624 88.5795 102.877 89.4325 110.522C90.2856 118.167 95.5046 124.486 102.742 126.628C122.806 132.577 138.077 151.373 141.103 173.662L138.704 173.93C136.799 163.501 127.081 156.145 116.37 157.34C113.425 157.669 110.6 158.636 108.096 160.154C102.081 155.382 94.3465 153.1 86.5967 153.965C78.4366 154.876 71.0256 159.214 66.192 165.766C65.3371 165.772 64.4707 165.82 63.6096 165.916C53.0754 167.092 44.7174 174.697 42.3674 184.68L38.8346 185.074C36.8961 162.663 47.6427 140.965 65.9016 130.738ZM128.356 175.084L53.8997 183.393C56.0806 179.499 60.0505 176.742 64.7664 176.216C65.9252 176.086 67.0672 176.098 68.1599 176.253C70.2624 176.548 72.3167 175.536 73.3746 173.699C76.4312 168.38 81.6688 164.936 87.7526 164.257C93.8123 163.58 99.8619 165.879 103.944 170.41C104.902 171.477 106.258 172.091 107.688 172.127C109.124 172.146 110.496 171.586 111.498 170.561C113.092 168.933 115.224 167.889 117.51 167.634C122.541 167.08 127.125 170.341 128.356 175.084ZM148.727 192.553L35.579 205.179C34.3397 205.317 33.1278 204.971 32.1789 204.205C31.2217 203.44 30.6185 202.343 30.4802 201.103C30.1964 198.56 32.0258 196.262 34.5528 195.98L147.692 183.356C148.915 183.219 150.128 183.573 151.094 184.345C152.051 185.11 152.655 186.216 152.794 187.455C153.084 189.981 151.254 192.271 148.727 192.553ZM158.63 168.423C155.999 168.716 153.368 168.725 150.763 168.453C146.999 148.52 135.201 131.725 118.775 122.297C122.601 107.669 135.156 96.6368 150.439 94.9314C170.695 92.6712 189.007 107.314 191.266 127.561C193.52 147.834 178.886 166.162 158.63 168.423Z" fill="#27516D"/>
<path d="M198.553 73.3568C197.076 72.2425 195.547 71.1747 194.002 70.1819C191.589 68.6343 188.385 69.3422 186.844 71.7465C185.296 74.1518 185.996 77.3652 188.401 78.9057C189.726 79.7599 191.042 80.6723 192.305 81.6231C193.408 82.4533 194.732 82.7782 196.004 82.6363C197.372 82.4836 198.671 81.7927 199.566 80.6092C201.284 78.3318 200.831 75.0825 198.553 73.3568Z" fill="#27516D"/>
<path d="M141.851 64.7812C142.168 67.63 144.727 69.6748 147.576 69.3569C157.265 68.2757 166.793 69.4043 175.888 72.6995C176.661 72.9799 177.46 73.0618 178.225 72.9765C180.124 72.7646 181.825 71.5074 182.524 69.5962C183.495 66.905 182.112 63.9307 179.421 62.9599C168.815 59.108 157.718 57.7962 146.428 59.0559C143.579 59.3738 141.533 61.9324 141.851 64.7812Z" fill="#27516D"/>
<path d="M84.9302 134.138C87.779 133.82 89.8238 131.262 89.5059 128.413L88.3224 117.807C88.0045 114.958 85.446 112.913 82.5973 113.231C79.7485 113.549 77.7037 116.107 78.0216 118.956L79.2051 129.563C79.523 132.411 82.0814 134.456 84.9302 134.138Z" fill="#27516D"/>
<path d="M86.7458 150.409C88.1058 150.258 89.3637 149.555 90.2233 148.498C91.0651 147.426 91.4731 146.044 91.3214 144.684C91.1696 143.324 90.4671 142.067 89.4097 141.207C87.2807 139.505 83.8203 139.891 82.1187 142.021C81.2768 143.092 80.8688 144.474 81.0206 145.834C81.1723 147.194 81.8749 148.452 82.9322 149.311C84.0039 150.153 85.3859 150.561 86.7458 150.409Z" fill="#27516D"/>
</svg>
