<svg width="170" height="172" viewBox="0 0 170 172" fill="none" xmlns="http://www.w3.org/2000/svg">
<g id="hourglass">
<g id="Frame 15">
<path id="Vector 40" d="M27.906 64.1456C49.0601 77.8844 62.1336 50.7674 96.5913 57.4875C95.7823 59.2548 93.8444 63.5295 92.5648 66.4896C90.9653 70.1899 82.4089 74.6663 79.5938 76.4898C76.7786 78.3132 73.8238 84.809 73.635 86.2105C72.5346 94.383 64.6415 100.295 55.6352 87.2129C53.9819 84.8115 49.3395 84.8967 27.906 64.1456Z" fill="#F2CD10" fill-opacity="0.5"/>
<path id="Subtract" fill-rule="evenodd" clip-rule="evenodd" d="M124.293 138.918C145.699 136.529 161.116 117.24 158.727 95.8334C156.338 74.4272 137.049 59.0104 115.643 61.399C95.9865 63.5923 81.3804 80.0361 80.9729 99.2837C96.5616 103.502 108.753 116.877 110.652 133.9C110.809 135.31 110.892 136.712 110.904 138.102C115.17 139.121 119.682 139.432 124.293 138.918Z" fill="white"/>
<path id="Rectangle 16" d="M4.25677 28.0456C3.67493 22.8313 7.43031 18.1325 12.6446 17.5507L98.1142 8.01355C103.329 7.43171 108.027 11.1871 108.609 16.4014V16.4014C109.191 21.6158 105.436 26.3145 100.221 26.8964L14.7517 36.4335C9.53735 37.0154 4.83861 33.26 4.25677 28.0456V28.0456Z" fill="white"/>
<path id="Rectangle 17" d="M18.7844 158.238C18.2025 153.023 21.9579 148.325 27.1722 147.743L112.642 138.206C117.856 137.624 122.555 141.379 123.137 146.593V146.593C123.719 151.808 119.963 156.506 114.749 157.088L29.2793 166.625C24.0649 167.207 19.3662 163.452 18.7844 158.238V158.238Z" fill="white"/>
<path id="Vector 41" d="M107.067 142.349L37.4986 150.112C36.0605 144.738 37.723 134.088 55.8782 134.477C59.1703 129.414 69.7424 121.661 85.6931 131.151C91.563 128.148 104.056 126.184 107.067 142.349Z" fill="#F2CD10" fill-opacity="0.5"/>
<g id="Group">
<path id="Vector" d="M118.103 66.9552C103.128 68.6262 90.7332 79.1433 86.4343 93.2499C85.5074 92.915 84.5699 92.6006 83.6168 92.3202C81.0633 91.5609 79.2116 89.2922 78.9033 86.5291C78.595 83.766 79.9011 81.1449 82.218 79.8422C99.9514 69.909 109.92 49.6585 107.706 28.1495C109.309 27.384 110.731 26.2649 111.874 24.8352C113.842 22.366 114.734 19.269 114.382 16.1175C113.663 9.61631 107.789 4.92156 101.295 5.64621L11.7785 15.6349C8.62062 15.9873 5.7965 17.5401 3.82243 20.01C1.85471 22.4793 0.961935 25.5699 1.31431 28.7278C1.88906 33.8785 5.6964 37.9014 10.4849 38.9914C13.0617 60.4664 27.2485 78.0205 46.7408 83.7993C49.288 84.5593 51.1397 86.8279 51.448 89.5911C51.7564 92.3542 50.4502 94.9752 48.1333 96.278C30.3934 106.212 20.4253 126.462 22.6459 147.976C18.2155 150.094 15.3885 154.858 15.9633 160.008C16.3157 163.166 17.8684 165.99 20.3384 167.964C22.8076 169.932 25.9046 170.824 29.0561 170.472L118.566 160.484C125.06 159.76 129.755 153.886 129.03 147.391C128.781 145.157 127.932 143.092 126.58 141.374C147.006 138.998 161.746 120.484 159.462 100.014C157.172 79.4942 138.622 64.6629 118.102 66.9527L118.103 66.9552ZM31.1858 59.6307C29.5258 59.081 27.82 58.5236 25.8551 58.0725C22.1771 52.3786 19.6746 45.7799 18.7206 38.7315L99.6167 29.7047C100.303 37.5889 99.0043 45.3594 96.0759 52.2749C91.7328 50.8449 86.7567 49.286 77.9004 50.2742C68.8596 51.2831 64.3467 53.9911 60.3591 56.3828C56.6254 58.6237 53.399 60.5565 46.1473 61.3657C38.8956 62.1748 35.3214 60.9934 31.1858 59.6307ZM10.2352 25.1299C10.8404 24.3726 11.7153 23.8947 12.6894 23.786L102.199 13.798C104.199 13.5749 106.01 15.0229 106.233 17.0221C106.343 18.0026 106.069 18.9614 105.464 19.7122C104.847 20.4836 103.978 20.9608 103.011 21.0688L13.5015 31.0631C11.5023 31.2862 9.68982 29.8319 9.46532 27.8199C9.35591 26.8395 9.62995 25.887 10.2352 25.1299ZM52.138 103.433C57.3435 100.519 60.2752 94.732 59.6003 88.6837C58.9254 82.6354 54.7964 77.6363 49.0703 75.9418C44.4437 74.5694 40.1398 72.3358 36.3083 69.4243C39.2007 69.8686 42.6453 70.0064 47.0637 69.5134C56.0918 68.506 60.6047 65.7979 64.5862 63.4134C68.3262 61.1718 71.5519 59.2326 78.8163 58.422C85.1003 57.7208 88.6238 58.5073 92.1382 59.617C88.5567 65.0123 83.8339 69.5358 78.2161 72.6832C73.0112 75.6039 70.0795 81.3908 70.7544 87.4392C71.4293 93.4875 75.5583 98.4865 81.2844 100.181C97.1576 104.888 109.24 119.758 111.633 137.392L109.736 137.604C108.229 129.354 100.54 123.534 92.0661 124.479C89.7358 124.739 87.5007 125.504 85.5204 126.705C80.761 122.93 74.6421 121.125 68.5108 121.809C62.055 122.529 56.1918 125.962 52.3677 131.146C51.6914 131.15 51.0059 131.188 50.3247 131.264C41.9906 132.194 35.3781 138.211 33.5189 146.109L30.724 146.421C29.1903 128.691 37.6925 111.524 52.138 103.433ZM101.548 138.518L42.6427 145.091C44.3681 142.01 47.5089 139.829 51.2399 139.413C52.1567 139.31 53.0601 139.319 53.9247 139.442C55.588 139.675 57.2133 138.875 58.0502 137.422C60.4685 133.213 64.6121 130.488 69.4253 129.951C74.2195 129.416 79.0056 131.235 82.2353 134.82C82.9934 135.663 84.0661 136.149 85.1973 136.178C86.3335 136.193 87.4185 135.75 88.2113 134.939C89.4728 133.651 91.1597 132.825 92.9679 132.623C96.9478 132.185 100.575 134.765 101.548 138.518ZM117.665 152.338L28.1483 162.327C27.1678 162.436 26.209 162.163 25.4583 161.557C24.701 160.951 24.2238 160.083 24.1144 159.102C23.8899 157.091 25.3372 155.272 27.3364 155.049L116.846 145.061C117.814 144.953 118.773 145.233 119.538 145.844C120.295 146.449 120.773 147.324 120.882 148.304C121.112 150.303 119.664 152.115 117.665 152.338ZM125.5 133.247C123.418 133.479 121.337 133.486 119.276 133.271C116.298 117.502 106.964 104.214 93.9686 96.755C96.996 85.1818 106.929 76.4539 119.02 75.1047C135.045 73.3165 149.532 84.9014 151.32 100.92C153.103 116.958 141.525 131.459 125.5 133.247Z" fill="#27516D"/>
<path id="Vector_2" d="M157.085 58.0361C155.916 57.1544 154.707 56.3096 153.485 55.5242C151.576 54.2998 149.04 54.8599 147.822 56.7621C146.596 58.665 147.151 61.2073 149.053 62.426C150.102 63.1019 151.143 63.8237 152.142 64.5759C153.015 65.2327 154.062 65.4897 155.068 65.3775C156.15 65.2567 157.179 64.7101 157.886 63.7738C159.245 61.972 158.887 59.4013 157.085 58.0361Z" fill="#27516D"/>
<path id="Vector_3" d="M112.225 51.2512C112.477 53.505 114.501 55.1228 116.754 54.8713C124.42 54.0159 131.958 54.9088 139.154 57.5158C139.765 57.7376 140.398 57.8024 141.002 57.7349C142.505 57.5673 143.851 56.5727 144.404 55.0606C145.172 52.9315 144.078 50.5783 141.949 49.8103C133.558 46.7629 124.778 45.725 115.847 46.7217C113.593 46.9732 111.974 48.9974 112.225 51.2512Z" fill="#27516D"/>
<path id="Vector_4" d="M126.142 102.034L124.024 83.0488C123.773 80.795 121.748 79.1772 119.495 79.4287C117.241 79.6802 115.623 81.7043 115.875 83.9581L118.181 104.632C118.302 105.714 118.85 106.697 119.7 107.382L130.889 116.325C131.774 117.032 132.862 117.31 133.9 117.194C134.944 117.078 135.944 116.566 136.644 115.676C138.058 113.907 137.77 111.328 136.001 109.914L126.142 102.034Z" fill="#27516D"/>
<path id="Vector_5" d="M67.1924 106.123C69.4462 105.872 71.0639 103.848 70.8124 101.594L69.8761 93.2025C69.6246 90.9487 67.6005 89.331 65.3467 89.5824C63.0929 89.8339 61.4752 91.858 61.7267 94.1118L62.663 102.503C62.9145 104.757 64.9386 106.375 67.1924 106.123Z" fill="#27516D"/>
<path id="Vector_6" d="M68.6288 118.996C69.7047 118.876 70.6999 118.32 71.38 117.484C72.046 116.636 72.3688 115.543 72.2488 114.467C72.1287 113.391 71.5729 112.396 70.7364 111.715C69.052 110.369 66.3142 110.675 64.968 112.359C64.302 113.207 63.9792 114.3 64.0993 115.376C64.2193 116.452 64.7751 117.447 65.6117 118.127C66.4595 118.793 67.5529 119.116 68.6288 118.996Z" fill="#27516D"/>
</g>
</g>
</g>
</svg>
