<svg width="193" height="193" viewBox="0 0 193 193" fill="none" xmlns="http://www.w3.org/2000/svg">
<g id="ineligible-x">
<g id="Group 15">
<circle id="Ellipse 18" cx="96.5" cy="96.5" r="96.5" fill="white"/>
<path id="Vector" d="M173.875 132.125C173.591 131.828 173.266 131.571 172.913 131.353C172.058 130.789 171.184 130.264 170.29 129.719H170.299C150.769 117.71 132.427 103.849 115.531 88.3141C115.266 88.0765 115.011 87.7893 114.726 87.4923L115.865 86.2745C133.441 67.9481 151.605 50.2553 169.68 32.4827C170.466 31.7501 171.282 31.0867 172.156 30.463C172.942 29.9778 173.315 29.0174 173.06 28.1165C172.795 27.1561 171.851 26.5521 170.879 26.7106C170.132 26.8987 169.425 27.2056 168.786 27.6214C168.295 27.9581 167.833 28.3244 167.411 28.7303C167.391 28.562 167.391 28.3937 167.411 28.2353C167.686 27.3739 167.352 26.4433 166.596 25.9581C165.829 25.4136 164.808 25.4235 164.061 25.9878C163.54 26.3145 163.059 26.7007 162.607 27.1165C161.035 28.5422 159.463 29.9976 157.892 31.4332C157.636 31.6708 157.371 31.8787 156.978 32.1757C156.624 30.3639 155.455 29.8985 153.667 30.2154C154.188 29.6312 154.512 29.2847 154.807 28.9085C155.485 28.0273 156.172 27.156 156.791 26.2649V26.255C157.233 25.5916 157.39 24.7798 157.233 24.0075C157.066 23.1263 156.369 22.4432 155.485 22.3046C154.65 22.1363 153.805 22.5818 153.461 23.364C152.763 24.958 151.712 26.354 150.386 27.4629C147.704 30.0568 144.983 32.6213 142.222 35.1359C128.331 47.7397 114.537 60.4523 101.206 73.6796C100.98 73.9073 100.724 74.1152 100.312 74.4914L99.457 73.432C99.8795 73.0855 100.213 72.8479 100.508 72.5608C113.26 60.363 126.012 48.1455 138.753 35.9282V35.9381C139.608 35.1263 140.345 34.1758 140.914 33.1361C141.327 32.4629 141.307 31.6015 140.865 30.948C140.433 30.2946 139.647 29.958 138.871 30.0966C137.938 30.156 137.024 30.4035 136.179 30.8193C134.873 31.5025 133.635 32.3045 132.475 33.2252C130.452 34.8094 128.487 36.5025 126.551 38.2252C115.902 47.73 105.675 57.7199 95.5572 67.7989C95.2134 68.1455 94.8695 68.4722 94.4864 68.8583C94.1524 68.5811 93.8969 68.393 93.6612 68.1752C86.3226 61.314 78.9349 54.4825 71.6553 47.5321C68.2463 44.2648 65.0438 40.7797 61.7821 37.374C61.2615 36.8492 60.9471 36.1562 60.4854 35.5918L60.4952 35.5819C60.0531 34.9978 59.5422 34.4631 58.9823 33.9978C58.5304 33.6711 57.9606 33.5325 57.4104 33.6117C56.8603 33.7008 56.3691 34.0077 56.0351 34.4632C55.8189 34.7503 55.5734 35.0176 55.2983 35.2552C54.7972 35.5523 54.4337 36.0473 54.306 36.6116C54.1685 37.1859 54.2569 37.7799 54.5615 38.2849C54.8169 38.7997 55.1116 39.2948 55.4456 39.77C58.7955 44.9482 62.5385 49.8689 66.6351 54.4727C70.7023 58.8786 74.9071 63.1459 79.0429 67.4823C79.318 67.7694 79.5636 68.0665 79.8583 68.3536L79.6618 68.5219C78.3749 67.3833 77.0782 66.2546 75.7911 65.106C69.5821 59.5517 63.2163 54.1459 57.5773 48.0073L57.5871 48.0172C56.7913 46.9084 55.7402 46.0173 54.5219 45.4036C54.3745 45.3244 54.2566 45.2155 54.1584 45.0867C51.8399 42.5423 49.4919 40.0077 47.2128 37.4236C46.7708 36.8395 46.4171 36.1959 46.1617 35.5029C45.8768 34.5623 44.973 33.9485 44.0004 34.0475C42.9885 34.1861 42.2124 35.0177 42.1436 36.0474C42.0847 36.8791 42.3106 37.7008 42.7822 38.384C43.1457 38.9682 43.5386 39.5424 43.8923 40.0869C43.4306 40.6513 43.2145 41.374 43.2931 42.1067C43.3717 42.8295 43.7351 43.4928 44.3049 43.9384C45.6214 45.5225 46.9673 47.0671 48.2934 48.6314C48.4702 48.8394 48.6176 49.0869 48.6962 49.1859C46.2795 46.7998 43.7646 44.3245 41.2497 41.8594H41.2398C40.9353 41.5326 40.5915 41.2356 40.228 40.9683C39.6975 40.5921 39.0196 40.503 38.4105 40.7307C37.8113 40.9584 37.3495 41.4732 37.1923 42.1069C37.1039 42.3742 37.0548 42.6316 36.9172 43.2554C36.6225 42.8296 36.4653 42.592 36.3081 42.3643C35.8268 41.6911 35.3552 41.0277 34.8738 40.3544V40.3643C34.3237 39.4337 33.1448 39.097 32.1919 39.6119C31.2684 40.1267 30.8657 41.2554 31.2586 42.2456C31.4453 42.7505 31.7007 43.2258 32.0347 43.6416C32.8108 44.701 33.6459 45.7109 34.5398 46.6811C37.4378 49.7008 40.3459 52.7205 43.3324 55.6612C52.2428 64.3936 61.6739 72.5619 71.0471 80.8092C71.3713 81.0963 71.6857 81.3934 72.0001 81.6904L72.0099 81.6805C71.6955 81.6607 71.391 81.5419 71.1454 81.3241C69.4065 79.9479 67.6579 78.5915 65.9583 77.1757C59.386 71.7304 52.8333 66.265 46.2906 60.8098C45.2886 59.9187 44.3749 58.9187 43.5694 57.8296C43.1568 57.1662 42.5183 56.6811 41.7716 56.4732C41.4573 56.394 41.1625 56.2356 40.9268 56.0079C38.6574 53.8792 36.388 51.7307 34.1384 49.5723H34.1482C33.4605 48.6911 32.2129 48.503 31.2993 49.1366C30.3955 49.8098 30.1794 51.0871 30.8081 52.0177C31.1617 52.582 31.5842 53.0771 32.0754 53.5226C34.276 55.6315 36.506 57.671 38.7164 59.76C40.2882 61.255 41.9287 62.7006 43.3829 64.3144L43.3731 64.3243C51.9888 73.9282 61.2725 82.8981 71.1457 91.1759C71.4502 91.4333 71.7351 91.7006 72.1084 92.0571L71.0573 93.1857C62.4023 102.572 53.7473 111.968 45.0929 121.363C42.9218 123.719 40.8097 126.115 38.717 128.551H38.7268C38.0686 129.382 37.4497 130.254 36.8799 131.164C36.5753 131.689 36.2315 132.194 35.868 132.689C33.6871 135.204 31.4668 137.679 29.2859 140.184C28.8143 140.699 28.3919 141.263 28.0382 141.867C27.7042 142.323 27.5765 142.897 27.6747 143.461C27.773 144.016 28.0972 144.511 28.5589 144.827C29.0305 145.134 29.6002 145.233 30.1504 145.105C30.6907 144.976 31.1623 144.639 31.457 144.164C32.3117 143.105 33.1664 142.055 34.0801 141.055C36.3986 138.451 38.727 135.847 41.1043 133.293C52.5494 120.947 64.0827 108.68 75.9415 96.7288C76.1969 96.4714 76.4621 96.2338 76.8256 95.9169L78.3582 97.1842C78.0045 97.5902 77.7393 97.907 77.4642 98.1941C62.63 114.461 47.7752 130.718 32.9319 146.985H32.9221C32.1853 147.757 31.5369 148.609 30.9868 149.52C30.5742 150.233 30.3187 151.025 30.2303 151.837C30.1321 152.44 30.2991 153.054 30.6724 153.53C31.0555 154.005 31.6155 154.302 32.2148 154.341C32.4113 154.381 32.6176 154.381 33.0891 154.421C32.647 154.945 32.3621 155.262 32.0674 155.589C29.4345 158.47 26.8016 161.351 24.169 164.232C23.7171 164.708 23.3044 165.222 22.941 165.767C21.9291 167.034 22.0764 168.866 23.275 169.945C24.4735 171.034 26.3007 170.985 27.4402 169.836C27.9609 169.371 28.4521 168.876 28.904 168.341L50.9785 144.124L51.8627 143.144L52.1083 143.223C51.7448 144.124 51.9511 145.163 52.6388 145.857C51.3322 147.322 50.065 148.668 48.8958 150.084C48.1295 150.995 47.4615 151.985 46.9015 153.035C46.1254 154.114 46.204 155.599 47.098 156.589C48.1393 157.411 49.6031 157.411 50.6544 156.589C51.6269 156.005 52.5307 155.292 53.3363 154.48C54.7019 153.114 55.9594 151.639 57.2365 150.203C69.2512 136.916 81.2563 123.64 93.2707 110.352C93.536 110.064 93.8307 109.797 94.1451 109.49L97.4656 112.005C107.899 119.965 118.391 127.846 128.747 135.906C134.739 140.569 140.496 145.519 146.371 150.321C147.422 151.182 148.512 151.974 149.642 152.717C150.192 153.064 150.811 153.281 151.46 153.37C152.383 153.519 153.297 153.014 153.68 152.163C154.142 151.291 153.985 150.222 153.307 149.519C153.051 149.252 152.766 149.014 152.462 148.806C151.342 147.974 150.212 147.163 149.102 146.321C143.954 142.43 139.258 138.014 134.435 133.767V133.777C134.337 133.678 134.258 133.579 134.199 133.46C134.376 133.411 134.572 133.44 134.72 133.549L156.372 149.39H156.382C156.794 149.727 157.236 150.014 157.718 150.252C158.455 150.608 159.329 150.509 159.968 150.004C160.616 149.499 160.911 148.668 160.744 147.856C160.685 147.549 160.596 147.232 160.528 146.994H160.537C161.264 146.608 161.972 146.163 162.63 145.658C163.347 145.014 163.082 144.074 162.925 143.222C163.858 142.925 164.516 142.084 164.595 141.103C164.811 141.044 164.929 141.004 165.047 140.975V140.985C166.108 140.846 167.011 140.103 167.365 139.084C167.709 138.054 167.453 136.915 166.697 136.153C166.137 135.49 165.528 134.886 164.86 134.341C161.755 131.658 158.631 129.005 155.517 126.331C155.262 126.114 155.026 125.866 154.781 125.629C154.997 125.609 155.223 125.668 155.4 125.797L170.322 135.074C170.656 135.312 171.01 135.51 171.373 135.688C172.326 136.123 173.456 135.817 174.055 134.945C174.655 134.084 174.547 132.906 173.81 132.153L173.875 132.125ZM152.921 41.8301C153.058 41.6321 153.225 41.4538 153.412 41.2954L165.368 30.3155C165.604 30.1076 165.869 29.9294 166.232 29.6522C162.077 34.1967 157.636 38.464 152.921 42.4243C152.921 42.1174 152.842 41.939 152.921 41.8301ZM72.9529 82.7309L72.4617 82.2953L72.5698 82.1764L73.0512 82.6319L72.9529 82.7309ZM81.5294 70.0283L81.1856 69.7906L81.2838 69.6223L81.6277 69.9094L81.5294 70.0283ZM102.484 100.266L103.447 99.3651L132.22 122.741C121.768 116.009 111.835 108.494 102.494 100.266L102.484 100.266Z" fill="#FF1A1A"/>
</g>
</g>
</svg>
