<svg width="653" height="37" viewBox="0 0 653 37" fill="none" xmlns="http://www.w3.org/2000/svg">
<path id="marker-underline" d="M569.844 19.82C573.486 19.2972 577.282 18.9325 581.168 18.6143C589.358 17.9213 597.796 17.6421 605.147 16.9657C582.725 15.6049 559.99 16.5688 541.822 16.8791C520.332 17.2549 495.133 17.8489 462.504 18.2674C400.244 19.0937 315.454 20.5256 231.391 24.2135C206.532 25.332 181.672 26.354 156.91 27.8249C147.61 28.3949 138.309 28.9648 129.009 29.5187C112.711 30.5327 96.414 31.5467 80.0854 32.4969C66.2683 33.2848 49.2917 36.2766 34.3823 36.3615C17.4083 36.455 5.46766 32.1986 1.61655 23.6764C0.178179 20.5812 -0.780277 16.0113 2.1602 13.2968C5.13027 10.5654 6.79135 9.77586 8.6027 9.01561C12.9988 7.23823 18.45 5.81038 21.0525 5.71071C56.9563 4.45467 97.0404 4.13048 129.191 3.97897C154.429 3.86729 179.726 3.72225 212.949 3.09873C252.791 2.65051 372.083 1.4393 411.887 0.685917C438.284 0.181026 464.645 0.836128 490.926 1.84706C512.799 2.68732 534.913 3.58726 557.389 4.64105C579.145 5.64467 592.047 5.48662 614.017 6.69532C617.434 6.8694 621.479 7.03109 625.854 7.23454C629.479 7.3562 634.184 7.58537 637.749 7.64382C641.312 7.6701 646.249 9.00563 652.941 12.8182C653.417 18.7018 650.455 21.8356 645.578 22.0283C641.171 23.2746 637.621 23.9243 635.321 24.179C626.483 25.4 618.199 25.9016 611.933 25.4939C607.706 25.2231 595.127 26.5502 584.129 27.5562C576.001 28.3285 571.363 28.5166 558.717 27.945C552.055 27.1427 551.821 24.4101 559.527 21.9396C562.952 21.0347 566.888 20.2325 569.844 19.82Z" fill="white"/>
</svg>
