<svg width="204" height="235" viewBox="0 0 204 235" fill="none" xmlns="http://www.w3.org/2000/svg">
<g id="wedding-rings">
<path id="Ellipse 1" d="M50.7277 74.4416C67.3734 69.4617 85.2286 71.1355 100.766 79.1325C116.304 87.1294 128.393 100.868 134.647 117.634C140.901 134.4 140.864 152.974 134.543 169.687C128.222 186.4 116.078 200.036 100.509 207.902C84.9396 215.768 67.078 217.291 50.4525 212.171C33.827 207.051 19.6468 195.66 10.7132 180.248C1.77953 164.836 -1.25786 146.524 2.20104 128.929C5.65995 111.335 15.3636 95.738 29.395 85.2193L43.4466 105.32C34.2637 112.204 27.9131 122.411 25.6494 133.926C23.3857 145.44 25.3735 157.425 31.2202 167.511C37.0668 177.597 46.3471 185.053 57.2277 188.403C68.1082 191.754 79.7978 190.757 89.9871 185.61C100.176 180.462 108.124 171.537 112.261 160.6C116.397 149.662 116.422 137.506 112.329 126.533C108.236 115.561 100.324 106.57 90.1555 101.336C79.9869 96.1024 68.3016 95.0069 57.4078 98.266L50.7277 74.4416Z" fill="white"/>
<path id="Ellipse 2" d="M118.877 92.6764C136.154 91.1759 153.263 96.5711 166.734 107.768C180.205 118.965 189.031 135.126 191.422 152.974C193.812 170.822 189.589 189.022 179.609 203.883C169.628 218.745 154.636 229.155 137.674 233.005C120.711 236.855 103.047 233.855 88.2617 224.614C73.4768 215.373 62.678 200.582 58.0548 183.241C53.4315 165.899 55.3297 147.305 63.3646 131.227C71.3995 115.149 84.9697 102.792 101.324 96.6599L109.1 119.769C98.3968 123.782 89.5157 131.869 84.2573 142.391C78.9988 152.913 77.7565 165.082 80.7822 176.432C83.8079 187.781 90.8752 197.461 100.551 203.508C110.227 209.556 121.788 211.519 132.889 209C143.99 206.481 153.801 199.667 160.333 189.941C166.865 180.215 169.629 168.304 168.064 156.624C166.5 144.943 160.724 134.366 151.908 127.038C143.091 119.711 131.894 116.18 120.587 117.162L118.877 92.6764Z" fill="white"/>
<path id="Star 1" d="M166.393 10.6591L148 34.4988L169.738 55.3335L141.382 45.2074L128.284 72.3202L129.152 42.2221L99.3189 38.1441L128.212 29.6686L122.872 0.0354771L139.861 24.8954L166.393 10.6591Z" fill="#F2CD10" fill-opacity="0.5"/>
<path id="Vector 1" d="M139.15 36.3233L182.803 57.1812L192.042 68.5852L202.043 68.0277L193.212 77.4864L199.21 86.6654L191.141 84.1627L184.794 91.9522L184.866 82.2162L144.442 111.15L120.593 54.9626L139.15 36.3233Z" fill="white"/>
<path id="Vector" d="M168.33 90.0578L174.87 85.6469L178.398 90.8788L171.858 95.2897L168.33 90.0578Z" fill="#27516D"/>
<path id="Vector_2" d="M159.053 103.946L165.332 99.7115L161.803 94.4796L152.858 100.528C152.858 100.528 152.571 100.394 152.432 100.313L170.439 72.7619L186 78.16L181.422 81.2477L184.951 86.4796L194.761 79.8631C195.727 79.1963 196.26 78.0452 196.124 76.896L193.743 56.0313C193.598 54.8122 192.782 53.7944 191.65 53.4015L137.275 34.539C136.142 34.146 134.842 34.4296 134.003 35.3075L119.213 50.2156C118.384 51.0637 118.1 52.2676 118.446 53.3895L131.548 94.3722C126.724 93.8345 121.805 93.8646 116.908 94.4036C109.898 87.463 101.609 82.283 92.1589 79.0049C57.6377 67.0295 19.8159 85.3706 7.84115 119.89C-4.13356 154.409 14.2069 192.233 48.7262 204.208C58.1463 207.475 67.8925 208.552 77.6644 207.433C84.6451 214.363 92.9642 219.554 102.383 222.821C136.905 234.797 174.726 216.456 186.701 181.936C196.877 152.603 184.999 120.026 159.021 103.935L159.053 103.946ZM138.549 95.5641L126.379 57.4762L141.941 62.8744L139.018 95.6581C139.018 95.6581 138.709 95.586 138.549 95.5641ZM145.182 97.4309L148.082 65.0045L164.299 70.6301L146.494 97.886L145.212 97.4413L145.182 97.4309ZM153.519 60.2109L159.903 57.1152L162.998 63.4994L153.519 60.2109ZM189.291 72.6204L176.652 68.2357L188.049 61.5687L189.321 72.6307L189.291 72.6204ZM183.113 57.1181L170.49 64.5285L164.201 51.5594C163.812 50.7563 163.16 50.2295 162.385 49.9606C161.61 49.6917 160.761 49.7313 159.968 50.0909L146.999 56.3795L141.677 42.7437L183.113 57.1181ZM135.045 43.1819L139.865 55.4746L127.226 51.0899L135.075 43.1922L135.045 43.1819ZM13.8329 121.967C24.6706 90.7253 58.8794 74.1362 90.1228 84.9745C99.0958 88.0872 106.978 93.0926 113.511 99.8676C116.95 103.432 119.887 107.29 122.212 111.369C131.099 126.476 132.874 144.659 127.114 161.263C121.354 177.868 109.56 190.109 94.0427 196.715C92.2444 195.256 90.587 193.679 89.0217 191.934C90.6655 191.335 92.3104 190.637 93.8764 189.877C120.496 176.97 131.644 144.833 118.727 118.242C117.266 115.231 115.495 112.345 113.522 109.657C110.528 105.579 106.989 102.014 103.024 99.0018C89.8852 88.9332 72.5136 85.4786 56.5561 89.7954L58.2184 95.8827C70.4928 92.5592 83.762 94.4571 94.6387 100.935C79.1881 108.601 67.2503 122.026 61.5313 138.512C55.8123 154.998 56.8521 172.892 64.2364 188.48C48.5549 186.413 34.9423 176.748 27.9132 162.253C18.0033 141.816 23.9915 117.14 42.1967 103.652L38.4465 98.5773C17.8334 113.904 11.0174 141.832 22.2516 164.998C28.5791 178.048 39.5986 187.682 52.8049 192.263C57.5746 193.918 62.652 194.877 67.878 195.121C69.2184 197.322 70.7491 199.456 72.4002 201.532C65.1325 201.783 57.891 200.707 50.8565 198.267C19.6149 187.429 3.02576 153.22 13.8641 121.977L13.8329 121.967ZM109.681 115.239C110.916 117.071 112.09 118.981 113.034 120.978C124.424 144.467 114.589 172.817 91.1 184.207C89.0924 185.181 87.0172 185.964 84.9135 186.636C83.6785 184.805 82.5042 182.895 81.5606 180.898C70.171 157.409 80.0056 129.059 103.495 117.669C105.502 116.695 107.577 115.912 109.681 115.239ZM104.483 216.87C95.5096 213.758 87.6273 208.752 81.0944 201.977C77.6552 198.413 74.7184 194.555 72.3931 190.476C63.506 175.369 61.7309 157.186 67.4909 140.581C73.2509 123.977 85.0451 111.736 100.563 105.13C102.361 106.589 104.018 108.166 105.584 109.911C103.94 110.51 102.295 111.208 100.729 111.968C74.1092 124.875 62.9611 157.012 75.8787 183.603C77.339 186.614 79.1101 189.5 81.083 192.188C84.0769 196.266 87.616 199.831 91.5808 202.843C96.2277 206.392 101.334 209.099 106.64 210.94C119.816 215.51 134.465 214.781 147.514 208.453C170.682 197.219 182.625 171.069 175.931 146.272L169.844 147.934C175.755 169.789 165.206 192.881 144.769 202.791C130.274 209.819 113.6 208.978 100.007 200.89C115.458 193.224 127.356 179.817 133.075 163.331C138.794 146.845 137.764 128.922 130.35 113.325C142.903 114.974 154.496 121.701 162.065 131.941L167.14 128.191C157.656 115.383 142.635 107.467 126.727 106.724C125.376 104.552 123.875 102.429 122.254 100.363C126.716 100.208 131.143 100.541 135.523 101.393C137.405 101.745 139.186 102.196 140.965 102.746C142.855 103.268 144.614 103.878 146.599 104.701C148.248 105.339 149.955 106.099 151.651 106.987C177.98 120.53 190.481 151.885 180.76 179.908C169.922 211.149 135.713 227.738 104.47 216.9L104.483 216.87Z" fill="#27516D"/>
<path id="Vector_3" d="M170.853 133.858L165.367 136.964C165.835 137.828 166.304 138.692 166.732 139.576C167.16 140.459 167.578 141.372 167.956 142.305L173.803 139.891C173.387 138.878 172.94 137.855 172.423 136.841C171.907 135.827 171.42 134.823 170.883 133.868L170.853 133.858Z" fill="#27516D"/>
<path id="Vector_4" d="M49.8138 99.0151C50.7075 98.5569 51.6103 98.1687 52.5027 97.8104L50.119 91.9737C49.106 92.3904 48.0828 92.837 47.0687 93.3535C46.0649 93.8402 45.0806 94.3671 44.0963 94.894L47.1926 100.41C48.0565 99.9415 48.9204 99.473 49.8438 99.0253L49.8138 99.0151Z" fill="#27516D"/>
<path id="Vector 2 (Stroke)" fill-rule="evenodd" clip-rule="evenodd" d="M176.856 41.852C177.261 40.6937 178.528 40.0827 179.686 40.4874L196.716 46.4374C199.763 47.5018 201.993 50.1343 202.542 53.3145L203.201 57.1331C203.41 58.3422 202.599 59.4916 201.39 59.7003C200.181 59.9091 199.032 59.0982 198.823 57.8891L198.164 54.0705C197.889 52.4804 196.774 51.1642 195.251 50.6319L178.221 44.682C177.062 44.2773 176.451 43.0102 176.856 41.852Z" fill="white"/>
</g>
</svg>
