<svg width="214" height="229" viewBox="0 0 214 229" fill="none" xmlns="http://www.w3.org/2000/svg">
<g id="world-plane">
<path id="Vector 26" d="M103.08 149.591C118.165 140.792 157.134 98.0513 150.849 65.3675L143.306 74.167L135.764 69.1387V51.5397C109.365 40.2263 31.4271 45.255 25.1416 118.165C18.92 190.332 80.0338 206.16 106.851 203.645C100.566 188.561 91.0122 156.631 103.08 149.591Z" fill="#0365F4" fill-opacity="0.5"/>
<path id="Ellipse 3" d="M185.941 45.8847C203.116 65.2359 212.95 90.2441 213.661 116.378C214.372 142.511 205.913 168.041 189.817 188.34C173.721 208.64 151.053 222.366 125.92 227.032C100.787 231.697 74.8534 226.994 52.8174 213.773C30.7815 200.552 14.1016 179.69 5.80034 154.965C-2.50088 130.241 -1.87417 103.291 7.56689 78.9984C17.008 54.7062 34.6387 34.6792 57.2643 22.5467C79.8898 10.4141 106.013 6.97861 130.9 12.8628L126.342 33.0612C106.172 28.2924 85.0003 31.0766 66.6635 40.9095C48.3266 50.7423 34.0378 66.9731 26.3863 86.6607C18.7348 106.348 18.2269 128.19 24.9546 148.228C31.6823 168.266 45.2005 185.174 63.0596 195.889C80.9186 206.603 101.937 210.415 122.306 206.634C142.674 202.853 161.046 191.728 174.091 175.277C187.136 158.825 193.991 138.135 193.415 116.955C192.839 95.7748 184.869 75.5069 170.949 59.8238L185.941 45.8847Z" fill="white"/>
<path id="Vector 5" d="M155.877 131.992C158.057 125.451 160.238 126.474 173.899 124.401C178.066 123.768 182.255 125.937 183.459 129.977C184.205 132.48 184.789 135.081 184.789 137.021C184.789 142.049 177.247 157.134 172.219 165.933C169.479 170.727 165.419 175.793 162.18 179.464C159.925 182.02 156.339 182.871 153.172 181.609C149.267 180.053 144.686 177.968 142.049 175.99C137.021 172.219 143.306 163.419 147.077 152.106C150.848 140.792 153.363 139.535 155.877 131.992Z" fill="white"/>
<path id="Vector 6" d="M51.54 173.476C53.5513 177.498 50.7019 182.694 49.0258 184.789L62.8536 193.589C68.72 194.008 81.4583 194.595 85.4809 193.589C90.5092 192.332 94.2804 192.332 99.3087 188.561C104.337 184.789 108.108 184.789 104.337 179.761C101.32 175.739 96.3756 175.571 94.2804 175.99L87.9951 165.933V162.162C86.738 159.648 83.4696 153.866 80.4527 150.849C76.6814 147.077 75.4244 138.278 71.6531 134.507C67.8819 130.735 57.8254 129.478 51.54 128.221C45.2546 126.964 43.9976 138.278 43.9976 144.563C43.9976 150.848 49.0258 168.447 51.54 173.476Z" fill="white"/>
<path id="Vector 7" d="M114.394 46.5116C77.9385 43.9975 66.6249 54.054 43.9976 72.9101V79.1955C43.9976 81.2068 46.5117 90.0901 47.7688 94.2804C49.8639 96.7945 54.557 101.571 56.5683 100.566C59.0824 99.3087 60.3395 94.2804 60.3395 91.7662C60.3395 89.2521 57.8254 84.2238 57.8254 81.7097C57.8254 79.1955 60.3395 76.6814 62.8536 76.6814C65.3678 76.6814 66.6249 79.1955 71.6531 81.7097C75.6758 83.721 75.8434 85.8999 75.4244 86.738C75.0053 88.8331 74.4187 93.2747 75.4244 94.2804C76.6814 95.5375 84.2239 93.0233 86.738 93.0233C88.7493 93.0233 91.7663 84.6428 93.0234 80.4526C93.8614 77.1004 95.7889 69.8932 96.7946 67.8819C97.8002 65.8705 104.756 67.8819 108.108 69.1389L114.394 65.3677C115.651 63.2726 117.411 56.5682 114.394 46.5116Z" fill="white"/>
<path id="Vector" d="M130.871 35.3711C131.861 36.034 132.923 36.7145 134.002 37.3951L133.226 47.9921V47.9832C108.948 39.0743 81.8705 41.8673 59.9556 55.531C38.0415 69.1949 23.7886 92.1825 21.3797 117.725C18.9805 143.267 28.6933 168.474 47.6831 185.912C47.8168 186.062 47.9595 186.186 48.1112 186.31C52.1603 189.978 56.5753 193.248 61.2845 196.058C61.3648 196.111 61.445 196.155 61.5253 196.2C79.3278 206.753 100.467 210.35 120.801 206.284C141.137 202.21 159.206 190.773 171.479 174.192C171.577 174.085 171.666 173.962 171.746 173.838C182.842 158.654 188.398 140.182 187.506 121.455C187.515 121.243 187.506 121.031 187.47 120.818C186.079 95.9663 173.45 73.0577 153.087 58.4732L156.137 48.8307C160.525 50.8105 164.815 52.6312 168.204 54.0541L167.473 63.7497V63.9442C167.437 67.3027 167.393 71.8897 171.602 73.1888L175.232 74.3201C176.838 74.8151 178.532 73.9313 179.041 72.3492L183.813 57.2979C185.543 57.0946 187.068 56.087 187.915 54.5758C188.754 53.0644 188.816 51.2437 188.076 49.6881L198.449 37.7123V37.7035C199.537 36.4485 199.394 34.5483 198.128 33.4612L195.229 30.9863C191.893 28.1317 187.987 30.5975 185.124 32.4093C185.07 32.4358 185.026 32.4712 184.981 32.5065L176.981 38.2247C173.984 36.1301 170.184 33.5052 166.189 30.8802L184.152 10.1989H184.161C185.249 8.93502 185.106 7.03488 183.839 5.95654L178.863 1.70538C174.349 -2.13919 168.882 1.29882 164.057 4.33925C164.003 4.3746 163.95 4.40995 163.896 4.44531L144.685 18.3212C143.525 17.7644 142.401 17.2341 141.295 16.7569C135.855 14.3705 125.803 14.0083 123.056 18.9046C120.318 23.7922 125.946 32.047 130.869 35.37L130.871 35.3711ZM112.561 49.2294C114.567 51.8633 114.326 56.9894 113.372 61.0991C112.4 65.2885 111.392 65.5182 110.955 65.6243V65.6154C109.171 65.7745 107.379 65.642 105.648 65.2177C102.063 64.6167 98.0046 63.9273 94.6422 65.9955C90.7625 68.3818 90.2807 73.5344 89.8615 78.0772C89.7902 80.3398 89.3888 82.5847 88.6664 84.7323C87.3196 87.6135 84.8757 89.8496 81.87 90.9456C80.5767 91.4405 79.2031 91.6968 77.8208 91.6968C77.7405 90.7865 77.7495 89.885 77.8297 88.9747C77.9813 86.3056 78.1865 82.6554 75.6624 80.0658C74.5921 78.9787 65.0845 69.5396 59.082 73.7908H59.073C56.1744 76.2477 54.5777 79.8891 54.7652 83.6631C54.8811 86.023 55.5679 88.312 56.7541 90.3624C57.6193 92.0593 57.8958 92.7046 57.5479 93.9418L57.4944 94.1362L57.4855 94.1274C57.1466 95.4884 56.656 96.7965 56.0406 98.0516C55.1576 97.4417 54.3728 96.6993 53.7039 95.8597C51.4028 93.1553 49.6548 90.0266 48.5755 86.6503C47.1662 82.1517 47.0057 77.3613 48.1206 72.7832C64.6476 55.2924 88.5322 46.56 112.552 49.2208L112.561 49.2294ZM85.812 170.657C85.9903 170.772 86.142 170.87 86.2222 170.931H86.2312C87.9525 172.345 89.5312 173.936 90.9226 175.686C91.5202 176.491 92.2337 177.207 93.0275 177.834C94.1335 178.479 95.3108 178.983 96.5417 179.354C97.5406 179.699 98.5752 180.061 99.5741 180.53V180.521C101.278 181.184 102.776 182.289 103.909 183.712C104.105 184.101 104.051 184.215 104.025 184.268H104.034C103.4 185.064 102.499 185.603 101.5 185.789C98.5304 186.469 95.7211 187.689 93.2147 189.404C92.0552 190.164 90.8422 190.862 89.6026 191.489C88.5947 191.993 87.7207 192.17 83.0293 191.834C81.8698 191.754 80.1395 191.71 78.1239 191.666C73.4413 191.666 68.7588 191.357 64.121 190.729C60.1253 188.316 56.3615 185.559 52.8741 182.466C52.5262 177.569 53.0079 176.606 53.2487 176.129C54.5419 173.574 54.4438 172.204 50.2341 159.009V159.018C48.6911 154.669 47.7903 150.127 47.5583 145.522C47.5315 143.286 47.3621 141.059 47.0499 138.849C46.8894 138.142 46.8448 137.409 46.925 136.684C47.5404 135.606 48.2897 134.607 49.1637 133.723C50.1091 132.486 51.2686 131.425 52.5797 130.586C52.7492 130.656 53.0346 130.789 53.2397 130.895C55.4962 132.141 58.1184 132.574 60.6604 132.115C63.0685 133.166 65.3251 134.519 67.3764 136.145C71.2116 139.088 72.2729 141.147 72.2907 141.819C72.5939 144.833 73.8158 147.687 75.7868 150.012C76.099 150.41 76.3844 150.834 76.643 151.267C77.5528 153.114 78.9263 154.714 80.621 155.898C81.6377 156.605 82.5029 157.507 83.1807 158.532C83.9478 159.584 84.5275 160.759 84.8932 162.005C84.5275 162.306 84.1172 162.545 83.6713 162.713C82.5386 163.19 81.7626 164.25 81.6645 165.47C81.4772 167.839 83.6892 169.27 85.812 170.657ZM174.341 157.603C172.495 161.536 170.31 165.301 167.821 168.872C166.377 168.404 164.825 168.386 163.362 168.81C160.41 169.076 157.449 168.448 154.871 167.016C152.998 164.983 152.534 162.04 153.676 159.53C153.926 158.973 154.22 158.346 154.532 157.683H154.541C155.388 155.986 156.129 154.245 156.771 152.46C157.136 151.302 157.413 150.127 157.591 148.924C157.68 147.616 158.189 146.37 159.045 145.354C161.756 141.951 161.917 141.845 163.79 140.616C164.477 140.166 165.342 139.6 166.546 138.76C168.526 136.993 169.819 134.589 170.212 131.973C170.408 131.186 170.649 130.408 170.943 129.648C172.655 125.813 174.528 125.654 177.186 126.661C178.685 127.068 180.281 126.829 181.592 126.016C181.468 136.94 178.988 147.704 174.341 157.603ZM181.369 119.377L180.924 119.607C180.29 119.934 179.22 120.482 178.569 120.756C172.825 118.918 168.053 121.242 165.387 127.208V127.199C164.959 128.242 164.611 129.311 164.343 130.399C164.111 131.618 163.665 132.785 163.023 133.845C161.908 134.632 161.088 135.162 160.437 135.587H160.446C157.975 137.142 155.87 139.193 154.274 141.623C152.793 143.426 151.866 145.618 151.607 147.934C151.473 148.826 151.268 149.71 150.991 150.576C150.43 152.123 149.778 153.643 149.047 155.119C148.717 155.826 148.396 156.498 148.12 157.117C145.952 161.889 146.915 167.484 150.563 171.266C153.025 173.723 159.152 175.173 163.175 174.899L163.166 174.908C148.441 192.019 126.882 201.882 104.184 201.891C95.6399 201.891 87.158 200.477 79.0866 197.702C80.5404 197.737 81.7891 197.773 82.6097 197.835C84.2062 197.949 85.5261 198.02 86.6858 198.02C88.639 198.109 90.5833 197.711 92.3316 196.862C93.7765 196.138 95.1768 195.333 96.5235 194.45C98.4857 193.088 100.698 192.125 103.043 191.604C105.844 191.02 108.234 189.235 109.581 186.725C110.402 184.878 110.312 182.748 109.34 180.971C107.592 178.329 105.086 176.27 102.143 175.05C100.876 174.466 99.6452 174.042 98.5662 173.662C97.8705 173.441 97.1926 173.176 96.5326 172.884C96.3186 172.655 95.9083 172.177 95.5694 171.78C93.8748 169.667 91.9483 167.75 89.8256 166.061C89.7542 166.008 89.665 165.947 89.5491 165.867V165.876C90.0753 165.284 90.4767 164.585 90.7175 163.834C91.6094 161.006 90.111 158.231 88.3719 155.394V155.403C87.3284 153.767 85.9904 152.344 84.4207 151.204C83.4663 150.586 82.6904 149.737 82.1642 148.739C81.7539 147.943 81.2723 147.192 80.7193 146.494C79.4974 145.115 78.6858 143.436 78.3737 141.633C78.2666 138.583 75.9922 135.269 71.5951 131.778C71.5148 131.716 63.5858 125.468 60.036 126.122C58.6536 126.475 57.1909 126.254 55.978 125.529C51.9466 123.514 49.2887 124.504 44.615 129.745C40.7709 134.058 40.4855 135.57 41.0296 139.644C41.315 141.624 41.4667 143.612 41.4845 145.61C41.7253 150.798 42.7242 155.933 44.4546 160.838C45.8727 164.913 47.0322 169.075 47.9062 173.3L47.8348 173.441L47.8259 173.433C47.3265 174.396 46.9965 175.439 46.8627 176.508C36.7752 165.354 30.2018 151.523 27.9633 136.71C25.7248 121.896 27.9187 106.758 34.2601 93.164C36.2669 88.8952 38.6484 84.8119 41.3865 80.9673C41.547 83.5039 42.0197 86.014 42.7778 88.4445C44.1068 92.5895 46.2473 96.4341 49.0746 99.7573C52.0447 103.213 54.4885 104.282 56.3793 104.282C57.289 104.282 58.172 104.035 58.9391 103.567C61.2936 102.17 62.3907 98.953 63.3095 95.789L63.363 95.6034H63.3719C64.1211 92.8901 63.6841 89.991 62.1589 87.6226C61.383 86.3499 60.9281 84.9181 60.8211 83.4332C60.7408 81.6921 61.3651 79.9952 62.5603 78.7137C63.7822 78.4485 68.0901 80.9763 71.2831 84.2464C71.9698 84.9446 71.8539 86.8979 71.7558 88.6301C71.6041 91.2373 71.4258 94.4897 73.9677 96.4518C76.6167 98.4846 80.5499 97.645 83.6805 96.6816L83.6716 96.6728C88.3452 95.0731 92.1446 91.6438 94.205 87.1894C95.2307 84.4408 95.8015 81.5418 95.8996 78.6075C96.1672 75.6202 96.515 71.9082 97.8261 71.1039C99.2353 70.2377 101.973 70.6973 104.614 71.148C107.138 71.749 109.76 71.864 112.329 71.4662C116.868 70.4145 118.429 66.0838 119.277 62.4336C120.302 58.474 120.418 54.3378 119.616 50.334C124.102 51.2531 128.499 52.5612 132.762 54.2494L132.28 60.8692V61.0548C132.227 66.7289 132.165 73.1544 137.855 74.9043L144.125 76.8398H144.116C145.721 77.3348 147.416 76.4421 147.925 74.8601L151.18 64.5459H151.171C168.697 77.6971 179.694 97.6632 181.372 119.377L181.369 119.377ZM138.834 22.2538C140.351 22.9167 141.956 23.6768 143.606 24.5164L143.642 24.5341L143.793 24.5959L143.927 24.649L144.043 24.6843C144.096 24.702 144.159 24.7197 144.221 24.7374L144.284 24.755C144.355 24.7727 144.435 24.7904 144.516 24.7992H144.542C144.632 24.8081 144.721 24.8257 144.81 24.8257H144.828H144.819C144.908 24.8346 145.006 24.8346 145.095 24.8257H145.158C145.229 24.8257 145.309 24.8257 145.39 24.8081L145.506 24.7904C145.559 24.7816 145.622 24.7727 145.666 24.755C145.72 24.7374 145.764 24.7285 145.809 24.7197L145.943 24.6843L146.077 24.6313L146.219 24.5783L146.326 24.5252C146.38 24.4987 146.433 24.4722 146.487 24.4457L146.567 24.3927C146.629 24.3573 146.692 24.322 146.745 24.2778L146.763 24.2601L167.384 9.36781C170.122 7.64436 173.797 5.33771 174.885 6.26559L177.561 8.55464L159.339 29.5452L159.312 29.5806L159.214 29.7043C159.179 29.7485 159.152 29.7839 159.116 29.8369L159.089 29.8723L159.045 29.943C159.018 29.996 158.982 30.049 158.956 30.0932C158.929 30.1462 158.92 30.1639 158.902 30.2081L158.831 30.3672L158.786 30.4909C158.768 30.544 158.75 30.5882 158.733 30.6412C158.715 30.6942 158.706 30.7384 158.697 30.7826C158.679 30.8268 158.679 30.871 158.67 30.924C158.661 30.9682 158.652 31.0301 158.643 31.0743C158.634 31.1273 158.643 31.1626 158.626 31.2068C158.608 31.251 158.626 31.3129 158.626 31.3659V31.4985V31.6487V31.7902C158.626 31.8343 158.626 31.8874 158.643 31.9316C158.661 31.9758 158.661 32.0288 158.67 32.0818C158.679 32.1348 158.688 32.1702 158.697 32.2144C158.706 32.2586 158.724 32.3204 158.742 32.3646C158.759 32.4177 158.768 32.4442 158.786 32.4884C158.804 32.5326 158.822 32.5856 158.84 32.6386C158.857 32.6916 158.875 32.7182 158.893 32.7624C158.911 32.7977 158.938 32.8596 158.964 32.9038C158.991 32.948 159.009 32.9833 159.036 33.0275C159.063 33.0717 159.089 33.1159 159.116 33.1601C159.143 33.2043 159.17 33.2396 159.205 33.2838L159.286 33.3987C159.321 33.4429 159.357 33.4871 159.402 33.5224L159.375 33.5136C159.41 33.549 159.437 33.5843 159.464 33.6108C159.509 33.655 159.544 33.6904 159.589 33.7346L159.651 33.7964L159.678 33.8141L159.687 33.8053C159.776 33.8936 159.883 33.9643 159.99 34.035C165.77 37.7559 171.469 41.7242 175.251 44.3845L175.277 44.4022C175.393 44.4817 175.518 44.5525 175.643 44.6143L175.67 44.632C175.795 44.6939 175.92 44.7381 176.053 44.7822L176.16 44.8176L176.151 44.8088C176.276 44.853 176.401 44.8795 176.535 44.8971H176.597C176.713 44.9148 176.829 44.9237 176.954 44.9237H177.052C177.141 44.9237 177.231 44.9237 177.32 44.906H177.373L177.364 44.9148C177.48 44.8971 177.596 44.8795 177.703 44.853H177.73C177.828 44.8264 177.926 44.7999 178.025 44.7646L178.114 44.7292C178.185 44.7027 178.256 44.6762 178.319 44.6408C178.39 44.6055 178.399 44.6055 178.435 44.579C178.47 44.5613 178.551 44.5171 178.604 44.4817L178.729 44.4022L178.774 44.3669L188.469 37.4377L188.478 37.4465C189.441 36.7925 190.467 36.2269 191.528 35.7673L191.858 36.0501L182.198 47.2128L182.163 47.2481L182.127 47.2923C182.074 47.3542 182.029 47.416 181.984 47.4779C181.967 47.5044 181.949 47.5398 181.931 47.5663V47.5751C181.895 47.6193 181.86 47.6723 181.833 47.7254C181.806 47.7696 181.788 47.8138 181.761 47.8579C181.735 47.9021 181.717 47.9375 181.699 47.9817C181.681 48.0259 181.654 48.0877 181.637 48.1408L181.592 48.2557C181.574 48.3087 181.556 48.3706 181.538 48.4236C181.521 48.4766 181.521 48.4943 181.512 48.5385C181.503 48.5738 181.494 48.6445 181.476 48.6976C181.467 48.7506 181.458 48.786 181.458 48.8302C181.449 48.8743 181.458 48.9274 181.44 48.9716C181.423 49.0246 181.44 49.0688 181.44 49.1218V49.2455V49.4135V49.5284C181.44 49.5637 181.458 49.6521 181.467 49.7051C181.476 49.767 181.485 49.7758 181.494 49.82C181.503 49.8554 181.521 49.9349 181.53 49.9879C181.547 50.041 181.556 50.0763 181.565 50.1205C181.583 50.1647 181.592 50.2177 181.61 50.2619C181.628 50.3061 181.654 50.368 181.681 50.421C181.708 50.4741 181.708 50.4917 181.726 50.5271C181.761 50.5978 181.797 50.6597 181.833 50.7304L181.86 50.7834L181.877 50.7745C182.011 50.9955 182.136 51.2253 182.243 51.4551C181.984 51.4904 181.735 51.4993 181.476 51.4993H181.423C181.342 51.4993 181.262 51.4993 181.182 51.517C181.146 51.517 181.119 51.517 181.084 51.5346C181.048 51.5523 180.959 51.5523 180.887 51.57C180.825 51.5877 180.798 51.5965 180.745 51.6053L180.602 51.6407L180.441 51.6937L180.325 51.7379L180.165 51.8086L180.058 51.8616C180.013 51.8882 179.96 51.9147 179.915 51.9412L179.808 52.0119L179.683 52.1003L179.567 52.1887L179.469 52.277C179.425 52.3124 179.389 52.3477 179.344 52.3919C179.309 52.4361 179.291 52.445 179.264 52.4803C179.237 52.5068 179.184 52.5599 179.148 52.6129C179.112 52.6571 179.104 52.6748 179.077 52.7101C179.05 52.7455 179.005 52.7985 178.979 52.8427C178.943 52.8869 178.925 52.9222 178.907 52.9664C178.881 53.0018 178.854 53.046 178.836 53.0902C178.809 53.1343 178.782 53.205 178.756 53.2581C178.729 53.3111 178.729 53.3199 178.711 53.3465C178.675 53.4172 178.649 53.4967 178.631 53.5762L178.613 53.6204V53.6646L174.171 67.6908L173.752 67.5582L173.734 67.5494C173.565 66.4181 173.502 65.2603 173.556 64.1114L174.439 52.4096V52.3565V52.2858V52.0737V51.9588C174.439 51.9058 174.43 51.8439 174.421 51.7909C174.421 51.7379 174.403 51.6937 174.394 51.6407C174.385 51.5876 174.377 51.5523 174.368 51.5081C174.359 51.4639 174.341 51.3932 174.323 51.3402C174.305 51.2871 174.305 51.2606 174.287 51.2253C174.278 51.1899 174.252 51.1104 174.225 51.0573C174.198 51.0043 174.198 50.9866 174.18 50.9513C174.162 50.9159 174.136 50.8452 174.109 50.801C174.082 50.7568 174.073 50.7215 174.047 50.6861C174.02 50.6508 174.002 50.6066 173.975 50.5624C173.948 50.5182 173.922 50.4829 173.895 50.4387L173.815 50.3326C173.779 50.2884 173.752 50.2442 173.708 50.2C173.672 50.1558 173.654 50.1382 173.627 50.1116C173.601 50.0851 173.547 50.0233 173.502 49.9879L173.413 49.9084C173.369 49.873 173.333 49.8288 173.279 49.7935L173.172 49.7139L173.048 49.6255C173.003 49.5902 172.949 49.5637 172.905 49.5372C172.851 49.5106 172.834 49.493 172.798 49.4753C172.762 49.4576 172.673 49.4134 172.611 49.3869L172.539 49.3516L172.486 49.3339C168.222 47.5662 161.872 44.8972 155.682 42.0246H155.727C155.557 41.9362 155.379 41.8567 155.192 41.8037C154.175 41.4855 153.06 41.7241 152.266 42.44H152.248C152.186 42.5019 152.115 42.5638 152.061 42.6256L152.034 42.6521C151.972 42.714 151.918 42.7847 151.874 42.8466L151.847 42.8819C151.802 42.9438 151.758 43.0145 151.713 43.0852L151.678 43.1382C151.642 43.2001 151.606 43.2708 151.571 43.3415L151.544 43.3946L151.535 43.4211C151.508 43.4741 151.49 43.5271 151.464 43.589H151.455C151.437 43.6332 151.419 43.6774 151.41 43.7216L151.392 43.7658L146.656 58.7906V58.826L143.062 70.2185L139.69 69.1756C138.317 68.7514 138.353 64.4206 138.388 61.2301L140.234 36.0137V35.9606V35.7927V35.6425V35.5629C140.163 34.5377 139.566 33.6185 138.647 33.1325C137.113 32.2133 135.65 31.2941 134.312 30.3839C131.333 28.3776 129.237 25.3196 128.444 21.8375C131.833 20.6708 135.552 20.822 138.834 22.2538ZM103.889 27.5478C103.889 25.8774 105.253 24.5341 106.93 24.5341C109.606 24.5075 112.291 24.6843 114.939 25.0467L116.206 25.1969C117.811 25.3737 118.998 26.7613 118.908 28.3609C118.81 29.9606 117.472 31.2068 115.858 31.1979C115.742 31.1979 115.617 31.1891 115.501 31.1803L114.226 31.03C111.809 30.6942 109.365 30.5351 106.921 30.5528C105.245 30.5528 103.889 29.2005 103.889 27.5478ZM201.446 95.0722L201.5 95.2224C202.187 97.1403 202.294 97.485 202.847 99.4824C203.284 101.091 202.329 102.744 200.706 103.186C199.092 103.619 197.424 102.673 196.978 101.064C196.639 99.7652 196.238 98.4837 195.765 97.2198L195.711 97.0696C195.212 95.514 196.05 93.8524 197.602 93.3132C199.154 92.7741 200.858 93.5607 201.446 95.0809L201.446 95.0722ZM190.859 78.2531C189.37 79.0043 187.533 78.421 186.774 76.9362C186.444 76.2203 186.052 75.5397 185.597 74.9034C185.33 74.5322 184.964 74.0284 184.331 73.012C183.465 71.5979 183.902 69.7596 185.312 68.8846C186.73 68.0096 188.594 68.4339 189.486 69.8215C190.021 70.6788 190.315 71.0853 190.547 71.4035C191.18 72.2873 191.733 73.2153 192.188 74.1876C192.563 74.9035 192.625 75.7343 192.376 76.4943C192.126 77.2632 191.582 77.8907 190.859 78.2531ZM190.859 84.6695C190.164 83.1582 190.842 81.3729 192.367 80.6835C193.901 79.9941 195.693 80.6658 196.389 82.1772C197.228 84.0067 197.816 85.3324 198.485 87.0469C198.788 87.7894 198.771 88.629 198.449 89.3625C198.119 90.096 197.513 90.6705 196.764 90.9622C196.006 91.2538 195.167 91.2361 194.427 90.9091C193.687 90.5821 193.107 89.9723 192.822 89.2211C192.197 87.6302 191.671 86.437 190.859 84.6695ZM70.3095 33.4787C70.0419 32.7186 70.0865 31.8878 70.4343 31.172C70.7911 30.4473 71.4154 29.8905 72.1735 29.6342C75.3754 28.5205 78.6398 27.6191 81.9667 26.9473C83.5989 26.585 85.2311 27.6102 85.5967 29.2276C85.9624 30.8538 84.9277 32.4712 83.2867 32.8337C80.2006 33.4523 77.1593 34.2831 74.1892 35.3173C73.4222 35.5824 72.5927 35.5383 71.8614 35.1936C71.1301 34.8489 70.577 34.2299 70.3095 33.4787ZM164.78 202.801C165.77 204.144 165.467 206.027 164.111 207.008C153.48 214.697 141.43 220.248 128.64 223.35C127.855 223.544 127.026 223.429 126.321 223.014C125.626 222.599 125.126 221.927 124.939 221.149C124.743 220.363 124.868 219.541 125.296 218.851C125.715 218.171 126.402 217.685 127.195 217.499C139.209 214.582 150.537 209.359 160.527 202.138C161.178 201.67 161.998 201.475 162.792 201.599C163.595 201.723 164.307 202.156 164.78 202.801ZM195.988 169.242C190.458 180.591 182.823 190.799 173.494 199.355C172.263 200.486 170.336 200.416 169.195 199.196C168.053 197.976 168.125 196.076 169.355 194.945C178.132 186.893 185.312 177.295 190.511 166.626C191.243 165.124 193.062 164.496 194.569 165.221C196.086 165.946 196.719 167.749 195.988 169.242ZM206.102 122.382C206.102 123.284 206.093 124.291 206.093 125.378L206.084 125.387C206.111 126.191 205.799 126.987 205.228 127.561C204.657 128.145 203.872 128.48 203.052 128.48C202.231 128.48 201.446 128.145 200.875 127.561C200.296 126.987 199.992 126.191 200.01 125.387V122.356V122.347C200.233 118.007 199.867 113.65 198.913 109.408C198.583 107.799 199.618 106.217 201.241 105.864C202.864 105.51 204.479 106.518 204.853 108.117C205.906 112.801 206.325 117.592 206.102 122.382ZM119.899 221.988C120.149 223.631 119.016 225.169 117.357 225.426C113.04 226.088 108.67 226.362 104.309 226.248C89.9223 226.283 75.6971 223.269 62.5774 217.409C61.0879 216.702 60.4368 214.944 61.1147 213.45C61.7925 211.956 63.5496 211.276 65.0659 211.912C77.4008 217.427 90.7801 220.255 104.311 220.229C108.369 220.344 112.436 220.087 116.45 219.469C118.1 219.221 119.649 220.352 119.899 221.988ZM205.54 135.921C204.657 144.38 202.686 152.696 199.689 160.669C199.413 161.43 198.842 162.057 198.111 162.393C197.37 162.738 196.523 162.773 195.756 162.49C194.989 162.207 194.374 161.633 194.044 160.89C193.714 160.148 193.696 159.308 193.99 158.557C196.818 151.062 198.664 143.25 199.493 135.296C199.707 133.669 201.188 132.512 202.829 132.68C204.47 132.848 205.674 134.288 205.54 135.915L205.54 135.921ZM87.8101 28.8811C87.6852 28.0857 87.8903 27.2814 88.363 26.6451C88.8447 25.9999 89.5582 25.5668 90.352 25.4519C92.9118 25.063 95.4804 24.8156 98.058 24.7007C98.8697 24.6477 99.6634 24.9128 100.279 25.4431C100.885 25.9734 101.26 26.7246 101.305 27.5201C101.358 28.3243 101.082 29.1109 100.538 29.7119C99.9935 30.3129 99.2354 30.6753 98.4237 30.7107C96.0334 30.8079 93.643 31.0377 91.2707 31.3912C91.1191 31.4177 90.9674 31.4266 90.8158 31.4266C89.3174 31.4266 88.042 30.3483 87.8101 28.8811ZM39.3179 51.6314C38.2566 50.3498 38.4439 48.4497 39.7371 47.3979C47.0506 41.4409 55.167 36.5268 63.853 32.7972C64.6022 32.4348 65.4584 32.3995 66.2345 32.6823C67.0194 32.9651 67.6437 33.5573 67.9737 34.3085C68.3037 35.0598 68.3037 35.9171 67.9826 36.6684C67.6615 37.4285 67.0461 38.0207 66.2702 38.3212C58.1004 41.83 50.4745 46.4524 43.5979 52.0469C42.9736 52.5595 42.1709 52.7981 41.3682 52.7186C40.5655 52.639 39.8352 52.25 39.3179 51.6314ZM10.9277 85.1537C15.3515 75.087 21.3986 65.8157 28.8372 57.6838C29.3724 57.0739 30.1394 56.6939 30.96 56.6497C31.7716 56.5967 32.5743 56.8795 33.1808 57.4186C33.7873 57.9666 34.1441 58.7267 34.1797 59.5398C34.2065 60.3529 33.9122 61.1395 33.3414 61.7228C26.3488 69.3678 20.6585 78.0912 16.5022 87.5478C16.0206 88.6526 14.9235 89.3597 13.7194 89.3597C13.3002 89.3597 12.8899 89.2713 12.5064 89.1122C11.7661 88.794 11.1864 88.193 10.8831 87.4506C10.5888 86.7082 10.6066 85.8784 10.9277 85.1537ZM7.99323 147.313C7.19943 147.473 6.37889 147.305 5.70996 146.863C5.04103 146.412 4.57725 145.723 4.42562 144.945C1.2594 128.912 2.03526 112.359 6.69106 96.6886C7.16377 95.0977 8.85839 94.1873 10.4726 94.6646C12.087 95.1331 13.0057 96.8123 12.524 98.4119C8.14468 113.154 7.41335 128.719 10.3924 143.797C10.7134 145.423 9.63438 146.995 7.99323 147.313ZM55.7547 210.666C55.3355 211.355 54.6577 211.841 53.8817 212.036C53.0969 212.221 52.2674 212.097 51.5807 211.682C30.8351 199.22 15.2447 179.839 7.61852 157.009C7.0923 155.436 7.95745 153.73 9.55396 153.209C11.1415 152.687 12.8629 153.545 13.3892 155.127C20.56 176.586 35.2141 194.819 54.7278 206.53C56.1638 207.396 56.6199 209.243 55.7547 210.666Z" fill="#27516D"/>
</g>
</svg>
